<?xml version="1.0" encoding="UTF-8" standalone="no"?>
<!DOCTYPE svg PUBLIC "-//W3C//DTD SVG 1.1//EN"
 "http://www.w3.org/Graphics/SVG/1.1/DTD/svg11.dtd">
<!-- Generated by graphviz version 14.1.5 (20260411.2331)
 -->
<!-- Title: Classifier_NewBox Pages: 1 -->
<svg width="283pt" height="28pt"
 viewBox="0.00 0.00 283.00 28.00" xmlns="http://www.w3.org/2000/svg" xmlns:xlink="http://www.w3.org/1999/xlink">
<g id="graph0" class="graph" transform="scale(1 1) rotate(0) translate(4 24)">
<title>Classifier_NewBox</title>
<!-- Node1 -->
<g id="Node000001" class="node">
<title>Node1</title>
<g id="a_Node000001"><a xlink:title="Registra una nueva caja medida por el HC&#45;SR04.">
<polygon fill="#999999" stroke="#666666" points="275.25,-20 175.25,-20 175.25,0 275.25,0 275.25,-20"/>
<text xml:space="preserve" text-anchor="middle" x="225.25" y="-6.5" font-family="Helvetica,sans-Serif" font-size="10.00">Classifier_NewBox</text>
</a>
</g>
</g>
<!-- Node2 -->
<g id="Node000002" class="node">
<title>Node2</title>
<g id="a_Node000002"><a xlink:href="main_8c.html#a86b74d914b1f6afb62d8bd1e4e31d166" target="_top" xlink:title="Registra una nueva caja y envia el evento al HMI.">
<polygon fill="white" stroke="#666666" points="139.25,-20 73,-20 73,0 139.25,0 139.25,-20"/>
<text xml:space="preserve" text-anchor="middle" x="106.12" y="-6.5" font-family="Helvetica,sans-Serif" font-size="10.00">OnNewBox</text>
</a>
</g>
</g>
<!-- Node1&#45;&gt;Node2 -->
<g id="edge1_Node000001_Node000002" class="edge">
<title>Node1&#45;&gt;Node2</title>
<g id="a_edge1_Node000001_Node000002"><a xlink:title=" ">
<path fill="none" stroke="#63b8ff" d="M163.41,-10C155.25,-10 147.15,-10 139.74,-10"/>
<polygon fill="#63b8ff" stroke="#63b8ff" points="163.4,-13.5 173.4,-10 163.4,-6.5 163.4,-13.5"/>
</a>
</g>
</g>
<!-- Node3 -->
<g id="Node000003" class="node">
<title>Node3</title>
<g id="a_Node000003"><a xlink:href="main_8c.html#a840291bc02cba5474a4cb46a9b9566fe" target="_top" xlink:title=" ">
<polygon fill="white" stroke="#666666" points="37,-20 0,-20 0,0 37,0 37,-20"/>
<text xml:space="preserve" text-anchor="middle" x="18.5" y="-6.5" font-family="Helvetica,sans-Serif" font-size="10.00">main</text>
</a>
</g>
</g>
<!-- Node2&#45;&gt;Node3 -->
<g id="edge2_Node000002_Node000003" class="edge">
<title>Node2&#45;&gt;Node3</title>
<g id="a_edge2_Node000002_Node000003"><a xlink:title=" ">
<path fill="none" stroke="#63b8ff" d="M61.46,-10C52.8,-10 44.18,-10 37.03,-10"/>
<polygon fill="#63b8ff" stroke="#63b8ff" points="61.24,-13.5 71.24,-10 61.24,-6.5 61.24,-13.5"/>
</a>
</g>
</g>
</g>
</svg>
