<?xml version="1.0" encoding="UTF-8" standalone="no"?>
<!DOCTYPE svg PUBLIC "-//W3C//DTD SVG 1.1//EN"
 "http://www.w3.org/Graphics/SVG/1.1/DTD/svg11.dtd">
<!-- Generated by graphviz version 14.1.5 (20260411.2331)
 -->
<!-- Title: Classifier.c Pages: 1 -->
<svg width="105pt" height="140pt"
 viewBox="0.00 0.00 105.00 140.00" xmlns="http://www.w3.org/2000/svg" xmlns:xlink="http://www.w3.org/1999/xlink">
<g id="graph0" class="graph" transform="scale(1 1) rotate(0) translate(4 136)">
<title>Classifier.c</title>
<!-- Node1 -->
<g id="Node000001" class="node">
<title>Node1</title>
<g id="a_Node000001"><a xlink:title="Implementacion del clasificador de cajas (modo open&#45;loop).">
<polygon fill="#999999" stroke="#666666" points="65.5,-132 0,-132 0,-112 65.5,-112 65.5,-132"/>
<text xml:space="preserve" text-anchor="middle" x="32.75" y="-118.5" font-family="Helvetica,sans-Serif" font-size="10.00">Classifier.c</text>
</a>
</g>
</g>
<!-- Node2 -->
<g id="Node000002" class="node">
<title>Node2</title>
<g id="a_Node000002"><a xlink:title=" ">
<polygon fill="#e0e0e0" stroke="#999999" points="56.88,-20 8.62,-20 8.62,0 56.88,0 56.88,-20"/>
<text xml:space="preserve" text-anchor="middle" x="32.75" y="-6.5" font-family="Helvetica,sans-Serif" font-size="10.00">stdint.h</text>
</a>
</g>
</g>
<!-- Node1&#45;&gt;Node2 -->
<g id="edge1_Node000001_Node000002" class="edge">
<title>Node1&#45;&gt;Node2</title>
<g id="a_edge1_Node000001_Node000002"><a xlink:title=" ">
<path fill="none" stroke="#63b8ff" d="M29.82,-111.81C27.1,-102.8 23.27,-88.62 21.75,-76 19.92,-60.84 22.99,-43.84 26.34,-31.02"/>
<polygon fill="#63b8ff" stroke="#63b8ff" points="29.63,-32.25 29.07,-21.67 22.91,-30.29 29.63,-32.25"/>
</a>
</g>
</g>
<!-- Node3 -->
<g id="Node000003" class="node">
<title>Node3</title>
<g id="a_Node000003"><a xlink:href="_classifier_8h.html" target="_top" xlink:title="Clasificador de cajas para cinta transportadora (modo open&#45;loop).">
<polygon fill="white" stroke="#666666" points="96.5,-76 31,-76 31,-56 96.5,-56 96.5,-76"/>
<text xml:space="preserve" text-anchor="middle" x="63.75" y="-62.5" font-family="Helvetica,sans-Serif" font-size="10.00">Classifier.h</text>
</a>
</g>
</g>
<!-- Node1&#45;&gt;Node3 -->
<g id="edge2_Node000001_Node000003" class="edge">
<title>Node1&#45;&gt;Node3</title>
<g id="a_edge2_Node000001_Node000003"><a xlink:title=" ">
<path fill="none" stroke="#63b8ff" d="M38.15,-111.59C42.19,-104.55 47.87,-94.67 52.84,-86"/>
<polygon fill="#63b8ff" stroke="#63b8ff" points="55.72,-88.03 57.66,-77.61 49.64,-84.54 55.72,-88.03"/>
</a>
</g>
</g>
<!-- Node3&#45;&gt;Node2 -->
<g id="edge3_Node000003_Node000002" class="edge">
<title>Node3&#45;&gt;Node2</title>
<g id="a_edge3_Node000003_Node000002"><a xlink:title=" ">
<path fill="none" stroke="#63b8ff" d="M58.35,-55.59C54.31,-48.55 48.63,-38.67 43.66,-30"/>
<polygon fill="#63b8ff" stroke="#63b8ff" points="46.86,-28.54 38.84,-21.61 40.78,-32.03 46.86,-28.54"/>
</a>
</g>
</g>
</g>
</svg>
