<?xml version="1.0" encoding="UTF-8" standalone="no"?>
<!DOCTYPE svg PUBLIC "-//W3C//DTD SVG 1.1//EN"
 "http://www.w3.org/Graphics/SVG/1.1/DTD/svg11.dtd">
<!-- Generated by graphviz version 14.1.5 (20260411.2331)
 -->
<!-- Title: Comm.c Pages: 1 -->
<svg width="128pt" height="196pt"
 viewBox="0.00 0.00 128.00 196.00" xmlns="http://www.w3.org/2000/svg" xmlns:xlink="http://www.w3.org/1999/xlink">

<svg id="main" version="1.1" xmlns="http://www.w3.org/2000/svg" xmlns:xlink="http://www.w3.org/1999/xlink" xml:space="preserve">

<style type="text/css"><![CDATA[
.node, .edge {opacity: 0.7;}
.node.selected, .edge.selected {opacity: 1;}
.edge:hover path { stroke: red; }
.edge:hover polygon { stroke: red; fill: red; }
]]></style>
<script type="application/ecmascript" xlink:href="svg.min.js"/>
<svg id="graph" class="graph">
<g id="graph0" class="graph" transform="scale(1 1) rotate(0) translate(4 192)">
<title>Comm.c</title>
<!-- Node1 -->
<g id="Node000001" class="node">
<title>Node1</title>
<g id="a_Node000001"><a xlink:title="Implementacion del modulo de comunicacion serie con protocolo UNER.">
<polygon fill="#999999" stroke="#666666" points="87.5,-188 34,-188 34,-168 87.5,-168 87.5,-188"/>
<text xml:space="preserve" text-anchor="middle" x="60.75" y="-174.5" font-family="Helvetica,sans-Serif" font-size="10.00">Comm.c</text>
</a>
</g>
</g>
<!-- Node2 -->
<g id="Node000002" class="node">
<title>Node2</title>
<g id="a_Node000002"><a xlink:href="_comm_8h.html" target="_top" xlink:title="Modulo de comunicacion serie con protocolo UNER.">
<polygon fill="white" stroke="#666666" points="53.5,-132 0,-132 0,-112 53.5,-112 53.5,-132"/>
<text xml:space="preserve" text-anchor="middle" x="26.75" y="-118.5" font-family="Helvetica,sans-Serif" font-size="10.00">Comm.h</text>
</a>
</g>
</g>
<!-- Node1&#45;&gt;Node2 -->
<g id="edge1_Node000001_Node000002" class="edge">
<title>Node1&#45;&gt;Node2</title>
<g id="a_edge1_Node000001_Node000002"><a xlink:title=" ">
<path fill="none" stroke="#63b8ff" d="M54.83,-167.59C50.39,-160.55 44.17,-150.67 38.71,-142"/>
<polygon fill="#63b8ff" stroke="#63b8ff" points="41.7,-140.18 33.41,-133.58 35.78,-143.91 41.7,-140.18"/>
</a>
</g>
</g>
<!-- Node5 -->
<g id="Node000005" class="node">
<title>Node5</title>
<g id="a_Node000005"><a xlink:title=" ">
<polygon fill="#e0e0e0" stroke="#999999" points="119.88,-132 71.62,-132 71.62,-112 119.88,-112 119.88,-132"/>
<text xml:space="preserve" text-anchor="middle" x="95.75" y="-118.5" font-family="Helvetica,sans-Serif" font-size="10.00">avr/io.h</text>
</a>
</g>
</g>
<!-- Node1&#45;&gt;Node5 -->
<g id="edge5_Node000001_Node000005" class="edge">
<title>Node1&#45;&gt;Node5</title>
<g id="a_edge5_Node000001_Node000005"><a xlink:title=" ">
<path fill="none" stroke="#63b8ff" d="M66.85,-167.59C71.46,-160.47 77.96,-150.45 83.62,-141.72"/>
<polygon fill="#63b8ff" stroke="#63b8ff" points="86.4,-143.86 88.9,-133.57 80.52,-140.06 86.4,-143.86"/>
</a>
</g>
</g>
<!-- Node3 -->
<g id="Node000003" class="node">
<title>Node3</title>
<g id="a_Node000003"><a xlink:title=" ">
<polygon fill="#e0e0e0" stroke="#999999" points="50.88,-20 2.62,-20 2.62,0 50.88,0 50.88,-20"/>
<text xml:space="preserve" text-anchor="middle" x="26.75" y="-6.5" font-family="Helvetica,sans-Serif" font-size="10.00">stdint.h</text>
</a>
</g>
</g>
<!-- Node2&#45;&gt;Node3 -->
<g id="edge2_Node000002_Node000003" class="edge">
<title>Node2&#45;&gt;Node3</title>
<g id="a_edge2_Node000002_Node000003"><a xlink:title=" ">
<path fill="none" stroke="#63b8ff" d="M23.79,-111.78C20.11,-99.21 14.56,-75.97 16.75,-56 17.64,-47.85 19.42,-39.02 21.24,-31.35"/>
<polygon fill="#63b8ff" stroke="#63b8ff" points="24.63,-32.23 23.71,-21.68 17.84,-30.5 24.63,-32.23"/>
</a>
</g>
</g>
<!-- Node4 -->
<g id="Node000004" class="node">
<title>Node4</title>
<g id="a_Node000004"><a xlink:href="_ring_buf_8h.html" target="_top" xlink:title="Buffer circular (ring buffer) de proposito general.">
<polygon fill="white" stroke="#666666" points="85.5,-76 26,-76 26,-56 85.5,-56 85.5,-76"/>
<text xml:space="preserve" text-anchor="middle" x="55.75" y="-62.5" font-family="Helvetica,sans-Serif" font-size="10.00">RingBuf.h</text>
</a>
</g>
</g>
<!-- Node2&#45;&gt;Node4 -->
<g id="edge3_Node000002_Node000004" class="edge">
<title>Node2&#45;&gt;Node4</title>
<g id="a_edge3_Node000002_Node000004"><a xlink:title=" ">
<path fill="none" stroke="#63b8ff" d="M31.8,-111.59C35.54,-104.63 40.77,-94.89 45.39,-86.29"/>
<polygon fill="#63b8ff" stroke="#63b8ff" points="48.39,-88.1 50.04,-77.63 42.23,-84.79 48.39,-88.1"/>
</a>
</g>
</g>
<!-- Node4&#45;&gt;Node3 -->
<g id="edge4_Node000004_Node000003" class="edge">
<title>Node4&#45;&gt;Node3</title>
<g id="a_edge4_Node000004_Node000003"><a xlink:title=" ">
<path fill="none" stroke="#63b8ff" d="M50.7,-55.59C46.96,-48.63 41.73,-38.89 37.11,-30.29"/>
<polygon fill="#63b8ff" stroke="#63b8ff" points="40.27,-28.79 32.46,-21.63 34.11,-32.1 40.27,-28.79"/>
</a>
</g>
</g>
</g>
</svg>
</svg>

<style type='text/css'>
<![CDATA[
[data-mouse-over-selected='false'] { opacity: 0.7; }
[data-mouse-over-selected='true']  { opacity: 1.0; }
]]>
</style>
<script type="application/ecmascript"><![CDATA[
document.addEventListener('DOMContentLoaded', (event) => {
  highlightEdges();
  highlightAdjacentNodes();
});
]]></script>
</svg>
