<?xml version="1.0" encoding="UTF-8" standalone="no"?>
<!DOCTYPE svg PUBLIC "-//W3C//DTD SVG 1.1//EN"
 "http://www.w3.org/Graphics/SVG/1.1/DTD/svg11.dtd">
<!-- Generated by graphviz version 14.1.5 (20260411.2331)
 -->
<!-- Title: Comm_InitUART Pages: 1 -->
<svg width="272pt" height="28pt"
 viewBox="0.00 0.00 272.00 28.00" xmlns="http://www.w3.org/2000/svg" xmlns:xlink="http://www.w3.org/1999/xlink">
<g id="graph0" class="graph" transform="scale(1 1) rotate(0) translate(4 24)">
<title>Comm_InitUART</title>
<!-- Node1 -->
<g id="Node000001" class="node">
<title>Node1</title>
<g id="a_Node000001"><a xlink:title="Configura el periferico UART0 del ATmega.">
<polygon fill="#999999" stroke="#666666" points="264,-20 173,-20 173,0 264,0 264,-20"/>
<text xml:space="preserve" text-anchor="middle" x="218.5" y="-6.5" font-family="Helvetica,sans-Serif" font-size="10.00">Comm_InitUART</text>
</a>
</g>
</g>
<!-- Node2 -->
<g id="Node000002" class="node">
<title>Node2</title>
<g id="a_Node000002"><a xlink:href="_comm_8c.html#a6cfe672dc0c2ab687ef544a79edf456e" target="_top" xlink:title="Inicializa el modulo de comunicacion y el hardware UART.">
<polygon fill="white" stroke="#666666" points="137,-20 73,-20 73,0 137,0 137,-20"/>
<text xml:space="preserve" text-anchor="middle" x="105" y="-6.5" font-family="Helvetica,sans-Serif" font-size="10.00">Comm_Init</text>
</a>
</g>
</g>
<!-- Node1&#45;&gt;Node2 -->
<g id="edge1_Node000001_Node000002" class="edge">
<title>Node1&#45;&gt;Node2</title>
<g id="a_edge1_Node000001_Node000002"><a xlink:title=" ">
<path fill="none" stroke="#63b8ff" d="M161.52,-10C153.21,-10 144.91,-10 137.35,-10"/>
<polygon fill="#63b8ff" stroke="#63b8ff" points="161.28,-13.5 171.28,-10 161.28,-6.5 161.28,-13.5"/>
</a>
</g>
</g>
<!-- Node3 -->
<g id="Node000003" class="node">
<title>Node3</title>
<g id="a_Node000003"><a xlink:href="main_8c.html#a840291bc02cba5474a4cb46a9b9566fe" target="_top" xlink:title=" ">
<polygon fill="white" stroke="#666666" points="37,-20 0,-20 0,0 37,0 37,-20"/>
<text xml:space="preserve" text-anchor="middle" x="18.5" y="-6.5" font-family="Helvetica,sans-Serif" font-size="10.00">main</text>
</a>
</g>
</g>
<!-- Node2&#45;&gt;Node3 -->
<g id="edge2_Node000002_Node000003" class="edge">
<title>Node2&#45;&gt;Node3</title>
<g id="a_edge2_Node000002_Node000003"><a xlink:title=" ">
<path fill="none" stroke="#63b8ff" d="M61.22,-10C52.84,-10 44.49,-10 37.49,-10"/>
<polygon fill="#63b8ff" stroke="#63b8ff" points="61.02,-13.5 71.02,-10 61.02,-6.5 61.02,-13.5"/>
</a>
</g>
</g>
</g>
</svg>
