<?xml version="1.0" encoding="UTF-8" standalone="no"?>
<!DOCTYPE svg PUBLIC "-//W3C//DTD SVG 1.1//EN"
 "http://www.w3.org/Graphics/SVG/1.1/DTD/svg11.dtd">
<!-- Generated by graphviz version 14.1.5 (20260411.2331)
 -->
<!-- Title: HCSR04.h Pages: 1 -->
<svg width="136pt" height="84pt"
 viewBox="0.00 0.00 136.00 84.00" xmlns="http://www.w3.org/2000/svg" xmlns:xlink="http://www.w3.org/1999/xlink">
<g id="graph0" class="graph" transform="scale(1 1) rotate(0) translate(4 80)">
<title>HCSR04.h</title>
<!-- Node1 -->
<g id="Node000001" class="node">
<title>Node1</title>
<g id="a_Node000001"><a xlink:title="Driver para sensor ultrasonico HC&#45;SR04.">
<polygon fill="#999999" stroke="#666666" points="100,-76 36,-76 36,-56 100,-56 100,-76"/>
<text xml:space="preserve" text-anchor="middle" x="68" y="-62.5" font-family="Helvetica,sans-Serif" font-size="10.00">HCSR04.h</text>
</a>
</g>
</g>
<!-- Node2 -->
<g id="Node000002" class="node">
<title>Node2</title>
<g id="a_Node000002"><a xlink:href="_h_c_s_r04_8c.html" target="_top" xlink:title="Implementacion del driver para sensor ultrasonico HC&#45;SR04.">
<polygon fill="white" stroke="#666666" points="64,-20 0,-20 0,0 64,0 64,-20"/>
<text xml:space="preserve" text-anchor="middle" x="32" y="-6.5" font-family="Helvetica,sans-Serif" font-size="10.00">HCSR04.c</text>
</a>
</g>
</g>
<!-- Node1&#45;&gt;Node2 -->
<g id="edge1_Node000001_Node000002" class="edge">
<title>Node1&#45;&gt;Node2</title>
<g id="a_edge1_Node000001_Node000002"><a xlink:title=" ">
<path fill="none" stroke="#63b8ff" d="M55.43,-46.15C49.6,-37.4 42.93,-27.39 38.2,-20.3"/>
<polygon fill="#63b8ff" stroke="#63b8ff" points="52.43,-47.96 60.89,-54.33 58.25,-44.07 52.43,-47.96"/>
</a>
</g>
</g>
<!-- Node3 -->
<g id="Node000003" class="node">
<title>Node3</title>
<g id="a_Node000003"><a xlink:href="main_8c.html" target="_top" xlink:title="Aplicacion principal del clasificador de cajas en cinta transportadora real.">
<polygon fill="white" stroke="#666666" points="127.62,-20 82.38,-20 82.38,0 127.62,0 127.62,-20"/>
<text xml:space="preserve" text-anchor="middle" x="105" y="-6.5" font-family="Helvetica,sans-Serif" font-size="10.00">main.c</text>
</a>
</g>
</g>
<!-- Node1&#45;&gt;Node3 -->
<g id="edge2_Node000001_Node000003" class="edge">
<title>Node1&#45;&gt;Node3</title>
<g id="a_edge2_Node000001_Node000003"><a xlink:title=" ">
<path fill="none" stroke="#63b8ff" d="M80.91,-46.15C86.91,-37.4 93.77,-27.39 98.63,-20.3"/>
<polygon fill="#63b8ff" stroke="#63b8ff" points="78.07,-44.12 75.3,-54.35 83.84,-48.07 78.07,-44.12"/>
</a>
</g>
</g>
</g>
</svg>
