<?xml version="1.0" encoding="UTF-8" standalone="no"?>
<!DOCTYPE svg PUBLIC "-//W3C//DTD SVG 1.1//EN"
 "http://www.w3.org/Graphics/SVG/1.1/DTD/svg11.dtd">
<!-- Generated by graphviz version 14.1.5 (20260411.2331)
 -->
<!-- Title: Servo.c Pages: 1 -->
<svg width="218pt" height="140pt"
 viewBox="0.00 0.00 218.00 140.00" xmlns="http://www.w3.org/2000/svg" xmlns:xlink="http://www.w3.org/1999/xlink">
<g id="graph0" class="graph" transform="scale(1 1) rotate(0) translate(4 136)">
<title>Servo.c</title>
<!-- Node1 -->
<g id="Node000001" class="node">
<title>Node1</title>
<g id="a_Node000001"><a xlink:title="Implementacion del driver PWM por software para servomotores SG90.">
<polygon fill="#999999" stroke="#666666" points="129,-132 79.25,-132 79.25,-112 129,-112 129,-132"/>
<text xml:space="preserve" text-anchor="middle" x="104.12" y="-118.5" font-family="Helvetica,sans-Serif" font-size="10.00">Servo.c</text>
</a>
</g>
</g>
<!-- Node2 -->
<g id="Node000002" class="node">
<title>Node2</title>
<g id="a_Node000002"><a xlink:title=" ">
<polygon fill="#e0e0e0" stroke="#999999" points="48.25,-76 0,-76 0,-56 48.25,-56 48.25,-76"/>
<text xml:space="preserve" text-anchor="middle" x="24.12" y="-62.5" font-family="Helvetica,sans-Serif" font-size="10.00">avr/io.h</text>
</a>
</g>
</g>
<!-- Node1&#45;&gt;Node2 -->
<g id="edge1_Node000001_Node000002" class="edge">
<title>Node1&#45;&gt;Node2</title>
<g id="a_edge1_Node000001_Node000002"><a xlink:title=" ">
<path fill="none" stroke="#63b8ff" d="M90.19,-111.59C78.45,-103.67 61.39,-92.16 47.56,-82.82"/>
<polygon fill="#63b8ff" stroke="#63b8ff" points="49.67,-80.02 39.42,-77.33 45.75,-85.82 49.67,-80.02"/>
</a>
</g>
</g>
<!-- Node3 -->
<g id="Node000003" class="node">
<title>Node3</title>
<g id="a_Node000003"><a xlink:title=" ">
<polygon fill="#e0e0e0" stroke="#999999" points="142.12,-76 66.12,-76 66.12,-56 142.12,-56 142.12,-76"/>
<text xml:space="preserve" text-anchor="middle" x="104.12" y="-62.5" font-family="Helvetica,sans-Serif" font-size="10.00">avr/interrupt.h</text>
</a>
</g>
</g>
<!-- Node1&#45;&gt;Node3 -->
<g id="edge2_Node000001_Node000003" class="edge">
<title>Node1&#45;&gt;Node3</title>
<g id="a_edge2_Node000001_Node000003"><a xlink:title=" ">
<path fill="none" stroke="#63b8ff" d="M104.12,-111.59C104.12,-105.01 104.12,-95.96 104.12,-87.73"/>
<polygon fill="#63b8ff" stroke="#63b8ff" points="107.63,-87.81 104.13,-77.81 100.63,-87.81 107.63,-87.81"/>
</a>
</g>
</g>
<!-- Node4 -->
<g id="Node000004" class="node">
<title>Node4</title>
<g id="a_Node000004"><a xlink:href="_servo_8h.html" target="_top" xlink:title="Driver PWM por software para servomotores SG90.">
<polygon fill="white" stroke="#666666" points="210,-76 160.25,-76 160.25,-56 210,-56 210,-76"/>
<text xml:space="preserve" text-anchor="middle" x="185.12" y="-62.5" font-family="Helvetica,sans-Serif" font-size="10.00">Servo.h</text>
</a>
</g>
</g>
<!-- Node1&#45;&gt;Node4 -->
<g id="edge3_Node000001_Node000004" class="edge">
<title>Node1&#45;&gt;Node4</title>
<g id="a_edge3_Node000001_Node000004"><a xlink:title=" ">
<path fill="none" stroke="#63b8ff" d="M118.23,-111.59C130.12,-103.67 147.39,-92.16 161.4,-82.82"/>
<polygon fill="#63b8ff" stroke="#63b8ff" points="163.27,-85.78 169.65,-77.32 159.38,-79.95 163.27,-85.78"/>
</a>
</g>
</g>
<!-- Node5 -->
<g id="Node000005" class="node">
<title>Node5</title>
<g id="a_Node000005"><a xlink:title=" ">
<polygon fill="#e0e0e0" stroke="#999999" points="209.25,-20 161,-20 161,0 209.25,0 209.25,-20"/>
<text xml:space="preserve" text-anchor="middle" x="185.12" y="-6.5" font-family="Helvetica,sans-Serif" font-size="10.00">stdint.h</text>
</a>
</g>
</g>
<!-- Node4&#45;&gt;Node5 -->
<g id="edge4_Node000004_Node000005" class="edge">
<title>Node4&#45;&gt;Node5</title>
<g id="a_edge4_Node000004_Node000005"><a xlink:title=" ">
<path fill="none" stroke="#63b8ff" d="M185.12,-55.59C185.12,-49.01 185.12,-39.96 185.12,-31.73"/>
<polygon fill="#63b8ff" stroke="#63b8ff" points="188.63,-31.81 185.13,-21.81 181.63,-31.81 188.63,-31.81"/>
</a>
</g>
</g>
</g>
</svg>
