<?xml version="1.0" encoding="UTF-8" standalone="no"?>
<!DOCTYPE svg PUBLIC "-//W3C//DTD SVG 1.1//EN"
 "http://www.w3.org/Graphics/SVG/1.1/DTD/svg11.dtd">
<!-- Generated by graphviz version 14.1.5 (20260411.2331)
 -->
<!-- Title: SendEvent Pages: 1 -->
<svg width="280pt" height="203pt"
 viewBox="0.00 0.00 280.00 203.00" xmlns="http://www.w3.org/2000/svg" xmlns:xlink="http://www.w3.org/1999/xlink">
<g id="graph0" class="graph" transform="scale(1 1) rotate(0) translate(4 199.45)">
<title>SendEvent</title>
<!-- Node1 -->
<g id="Node000001" class="node">
<title>Node1</title>
<g id="a_Node000001"><a xlink:title="Envia un evento al HMI Qt via protocolo UNER.">
<polygon fill="#999999" stroke="#666666" points="271.5,-115 207.5,-115 207.5,-95 271.5,-95 271.5,-115"/>
<text xml:space="preserve" text-anchor="middle" x="239.5" y="-101.5" font-family="Helvetica,sans-Serif" font-size="10.00">SendEvent</text>
</a>
</g>
</g>
<!-- Node2 -->
<g id="Node000002" class="node">
<title>Node2</title>
<g id="a_Node000002"><a xlink:href="main_8c.html#a840291bc02cba5474a4cb46a9b9566fe" target="_top" xlink:title=" ">
<polygon fill="white" stroke="#666666" points="37,-115 0,-115 0,-95 37,-95 37,-115"/>
<text xml:space="preserve" text-anchor="middle" x="18.5" y="-101.5" font-family="Helvetica,sans-Serif" font-size="10.00">main</text>
</a>
</g>
</g>
<!-- Node1&#45;&gt;Node2 -->
<g id="edge1_Node000001_Node000002" class="edge">
<title>Node1&#45;&gt;Node2</title>
<g id="a_edge1_Node000001_Node000002"><a xlink:title=" ">
<path fill="none" stroke="#63b8ff" d="M227.52,-125.15C216.21,-143.57 196.69,-169.62 171.5,-181 131.6,-199.02 111.86,-201.17 73,-181 46.07,-167.03 29.84,-132.59 23.12,-115.28"/>
<polygon fill="#63b8ff" stroke="#63b8ff" points="230.45,-127.07 232.45,-116.67 224.4,-123.55 230.45,-127.07"/>
</a>
</g>
</g>
<!-- Node3 -->
<g id="Node000003" class="node">
<title>Node3</title>
<g id="a_Node000003"><a xlink:href="main_8c.html#a511c6364f4cb08ab4ff1b2a53d626544" target="_top" xlink:title=" ">
<polygon fill="white" stroke="#666666" points="146,-172 98.5,-172 98.5,-152 146,-152 146,-172"/>
<text xml:space="preserve" text-anchor="middle" x="122.25" y="-158.5" font-family="Helvetica,sans-Serif" font-size="10.00">On2ms</text>
</a>
</g>
</g>
<!-- Node1&#45;&gt;Node3 -->
<g id="edge2_Node000001_Node000003" class="edge">
<title>Node1&#45;&gt;Node3</title>
<g id="a_edge2_Node000001_Node000003"><a xlink:title=" ">
<path fill="none" stroke="#63b8ff" d="M212.24,-121.03C200.06,-128.17 185.26,-136.43 171.5,-143 163.38,-146.88 154.24,-150.63 146.11,-153.75"/>
<polygon fill="#63b8ff" stroke="#63b8ff" points="213.67,-124.25 220.48,-116.13 210.09,-118.24 213.67,-124.25"/>
</a>
</g>
</g>
<!-- Node4 -->
<g id="Node000004" class="node">
<title>Node4</title>
<g id="a_Node000004"><a xlink:href="main_8c.html#ae20a66bc6fe10fe702f4b3f2922c52d8" target="_top" xlink:title="Callback del clasificador: solicita el disparo del actuador y notifica al HMI.">
<polygon fill="white" stroke="#666666" points="170,-134 74.5,-134 74.5,-114 170,-114 170,-134"/>
<text xml:space="preserve" text-anchor="middle" x="122.25" y="-120.5" font-family="Helvetica,sans-Serif" font-size="10.00">OnActuatorTrigger</text>
</a>
</g>
</g>
<!-- Node1&#45;&gt;Node4 -->
<g id="edge4_Node000001_Node000004" class="edge">
<title>Node1&#45;&gt;Node4</title>
<g id="a_edge4_Node000001_Node000004"><a xlink:title=" ">
<path fill="none" stroke="#63b8ff" d="M195.67,-112.06C187.39,-113.43 178.68,-114.86 170.27,-116.25"/>
<polygon fill="#63b8ff" stroke="#63b8ff" points="196.22,-115.52 205.51,-110.44 195.08,-108.61 196.22,-115.52"/>
</a>
</g>
</g>
<!-- Node5 -->
<g id="Node000005" class="node">
<title>Node5</title>
<g id="a_Node000005"><a xlink:href="main_8c.html#a93e1ae40572a89c84a414b44cea20014" target="_top" xlink:title="Despacha comandos recibidos via protocolo UNER desde el HMI.">
<polygon fill="white" stroke="#666666" points="161.75,-96 82.75,-96 82.75,-76 161.75,-76 161.75,-96"/>
<text xml:space="preserve" text-anchor="middle" x="122.25" y="-82.5" font-family="Helvetica,sans-Serif" font-size="10.00">OnCommCmd</text>
</a>
</g>
</g>
<!-- Node1&#45;&gt;Node5 -->
<g id="edge6_Node000001_Node000005" class="edge">
<title>Node1&#45;&gt;Node5</title>
<g id="a_edge6_Node000001_Node000005"><a xlink:title=" ">
<path fill="none" stroke="#63b8ff" d="M195.85,-97.97C184.8,-96.15 172.95,-94.19 162.11,-92.41"/>
<polygon fill="#63b8ff" stroke="#63b8ff" points="195.08,-101.39 205.51,-99.56 196.22,-94.48 195.08,-101.39"/>
</a>
</g>
</g>
<!-- Node6 -->
<g id="Node000006" class="node">
<title>Node6</title>
<g id="a_Node000006"><a xlink:href="main_8c.html#a86b74d914b1f6afb62d8bd1e4e31d166" target="_top" xlink:title="Registra una nueva caja y envia el evento al HMI.">
<polygon fill="white" stroke="#666666" points="155.38,-58 89.12,-58 89.12,-38 155.38,-38 155.38,-58"/>
<text xml:space="preserve" text-anchor="middle" x="122.25" y="-44.5" font-family="Helvetica,sans-Serif" font-size="10.00">OnNewBox</text>
</a>
</g>
</g>
<!-- Node1&#45;&gt;Node6 -->
<g id="edge8_Node000001_Node000006" class="edge">
<title>Node1&#45;&gt;Node6</title>
<g id="a_edge8_Node000001_Node000006"><a xlink:title=" ">
<path fill="none" stroke="#63b8ff" d="M212.24,-88.97C200.06,-81.83 185.26,-73.57 171.5,-67 165.24,-64.01 158.39,-61.1 151.86,-58.5"/>
<polygon fill="#63b8ff" stroke="#63b8ff" points="210.09,-91.76 220.48,-93.87 213.67,-85.75 210.09,-91.76"/>
</a>
</g>
</g>
<!-- Node7 -->
<g id="Node000007" class="node">
<title>Node7</title>
<g id="a_Node000007"><a xlink:href="main_8c.html#ac791cf6e6329387043b6bc9441a4e86b" target="_top" xlink:title="Lee los sensores IR S1 (PD2, pin 2), S2 (PD3, pin 3), S3 (PD4, pin 4) y envia eventos al HMI al detec...">
<polygon fill="white" stroke="#666666" points="171.5,-20 73,-20 73,0 171.5,0 171.5,-20"/>
<text xml:space="preserve" text-anchor="middle" x="122.25" y="-6.5" font-family="Helvetica,sans-Serif" font-size="10.00">ProcessIRSensors</text>
</a>
</g>
</g>
<!-- Node1&#45;&gt;Node7 -->
<g id="edge10_Node000001_Node000007" class="edge">
<title>Node1&#45;&gt;Node7</title>
<g id="a_edge10_Node000001_Node000007"><a xlink:title=" ">
<path fill="none" stroke="#63b8ff" d="M225.58,-85.77C213.37,-68.84 193.65,-44.54 171.5,-29 166.78,-25.69 161.41,-22.85 156,-20.45"/>
<polygon fill="#63b8ff" stroke="#63b8ff" points="222.4,-87.33 231,-93.52 228.14,-83.32 222.4,-87.33"/>
</a>
</g>
</g>
<!-- Node3&#45;&gt;Node2 -->
<g id="edge3_Node000003_Node000002" class="edge">
<title>Node3&#45;&gt;Node2</title>
<g id="a_edge3_Node000003_Node000002"><a xlink:title=" ">
<path fill="none" stroke="#63b8ff" d="M87.5,-149.93C82.55,-147.81 77.58,-145.48 73,-143 58.17,-134.97 42.61,-123.52 32.12,-115.3"/>
<polygon fill="#63b8ff" stroke="#63b8ff" points="86.17,-153.16 96.75,-153.64 88.78,-146.67 86.17,-153.16"/>
</a>
</g>
</g>
<!-- Node4&#45;&gt;Node2 -->
<g id="edge5_Node000004_Node000002" class="edge">
<title>Node4&#45;&gt;Node2</title>
<g id="a_edge5_Node000004_Node000002"><a xlink:title=" ">
<path fill="none" stroke="#63b8ff" d="M63.17,-113.15C53.8,-111.41 44.76,-109.72 37.36,-108.34"/>
<polygon fill="#63b8ff" stroke="#63b8ff" points="62.29,-116.55 72.76,-114.95 63.57,-109.67 62.29,-116.55"/>
</a>
</g>
</g>
<!-- Node5&#45;&gt;Node2 -->
<g id="edge7_Node000005_Node000002" class="edge">
<title>Node5&#45;&gt;Node2</title>
<g id="a_edge7_Node000005_Node000002"><a xlink:title=" ">
<path fill="none" stroke="#63b8ff" d="M71.41,-95.31C59.23,-97.58 46.98,-99.87 37.43,-101.65"/>
<polygon fill="#63b8ff" stroke="#63b8ff" points="71.82,-98.79 81,-93.52 70.53,-91.91 71.82,-98.79"/>
</a>
</g>
</g>
<!-- Node6&#45;&gt;Node2 -->
<g id="edge9_Node000006_Node000002" class="edge">
<title>Node6&#45;&gt;Node2</title>
<g id="a_edge9_Node000006_Node000002"><a xlink:title=" ">
<path fill="none" stroke="#63b8ff" d="M80.88,-63.04C78.18,-64.31 75.53,-65.63 73,-67 58.17,-75.03 42.61,-86.48 32.12,-94.7"/>
<polygon fill="#63b8ff" stroke="#63b8ff" points="82.24,-66.26 90,-59.05 79.44,-59.85 82.24,-66.26"/>
</a>
</g>
</g>
<!-- Node7&#45;&gt;Node2 -->
<g id="edge11_Node000007_Node000002" class="edge">
<title>Node7&#45;&gt;Node2</title>
<g id="a_edge11_Node000007_Node000002"><a xlink:title=" ">
<path fill="none" stroke="#63b8ff" d="M77.16,-26.02C75.72,-26.96 74.33,-27.96 73,-29 49.66,-47.35 32.23,-78.58 24.28,-94.7"/>
<polygon fill="#63b8ff" stroke="#63b8ff" points="78.79,-29.12 85.85,-21.22 75.41,-22.99 78.79,-29.12"/>
</a>
</g>
</g>
</g>
</svg>
