<?xml version="1.0" encoding="UTF-8" standalone="no"?>
<!DOCTYPE svg PUBLIC "-//W3C//DTD SVG 1.1//EN"
 "http://www.w3.org/Graphics/SVG/1.1/DTD/svg11.dtd">
<!-- Generated by graphviz version 14.1.5 (20260411.2331)
 -->
<!-- Title: OnNewBox Pages: 1 -->
<svg width="416pt" height="66pt"
 viewBox="0.00 0.00 416.00 66.00" xmlns="http://www.w3.org/2000/svg" xmlns:xlink="http://www.w3.org/1999/xlink">

<svg id="main" version="1.1" xmlns="http://www.w3.org/2000/svg" xmlns:xlink="http://www.w3.org/1999/xlink" xml:space="preserve">

<style type="text/css"><![CDATA[
.node, .edge {opacity: 0.7;}
.node.selected, .edge.selected {opacity: 1;}
.edge:hover path { stroke: red; }
.edge:hover polygon { stroke: red; fill: red; }
]]></style>
<script type="application/ecmascript" xlink:href="svg.min.js"/>
<svg id="graph" class="graph">
<g id="graph0" class="graph" transform="scale(1 1) rotate(0) translate(4 62)">
<title>OnNewBox</title>
<!-- Node1 -->
<g id="Node000001" class="node">
<title>Node1</title>
<g id="a_Node000001"><a xlink:title="Registra una nueva caja y envia el evento al HMI.">
<polygon fill="#999999" stroke="#666666" points="66.25,-39 0,-39 0,-19 66.25,-19 66.25,-39"/>
<text xml:space="preserve" text-anchor="middle" x="33.12" y="-25.5" font-family="Helvetica,sans-Serif" font-size="10.00">OnNewBox</text>
</a>
</g>
</g>
<!-- Node2 -->
<g id="Node000002" class="node">
<title>Node2</title>
<g id="a_Node000002"><a xlink:href="_classifier_8c.html#a6bc38faab18ac29b750ae7607058a19c" target="_top" xlink:title="Registra una nueva caja medida por el HC&#45;SR04.">
<polygon fill="white" stroke="#666666" points="202.25,-58 102.25,-58 102.25,-38 202.25,-38 202.25,-58"/>
<text xml:space="preserve" text-anchor="middle" x="152.25" y="-44.5" font-family="Helvetica,sans-Serif" font-size="10.00">Classifier_NewBox</text>
</a>
</g>
</g>
<!-- Node1&#45;&gt;Node2 -->
<g id="edge1_Node000001_Node000002" class="edge">
<title>Node1&#45;&gt;Node2</title>
<g id="a_edge1_Node000001_Node000002"><a xlink:title=" ">
<path fill="none" stroke="#63b8ff" d="M66.44,-34.24C73.98,-35.47 82.25,-36.81 90.59,-38.16"/>
<polygon fill="#63b8ff" stroke="#63b8ff" points="89.99,-41.61 100.42,-39.75 91.11,-34.7 89.99,-41.61"/>
</a>
</g>
</g>
<!-- Node3 -->
<g id="Node000003" class="node">
<title>Node3</title>
<g id="a_Node000003"><a xlink:href="main_8c.html#a2bec24fbf70e6bfc572847a7d417a1e4" target="_top" xlink:title="Envia un evento al HMI Qt via protocolo UNER.">
<polygon fill="white" stroke="#666666" points="184.25,-20 120.25,-20 120.25,0 184.25,0 184.25,-20"/>
<text xml:space="preserve" text-anchor="middle" x="152.25" y="-6.5" font-family="Helvetica,sans-Serif" font-size="10.00">SendEvent</text>
</a>
</g>
</g>
<!-- Node1&#45;&gt;Node3 -->
<g id="edge2_Node000001_Node000003" class="edge">
<title>Node1&#45;&gt;Node3</title>
<g id="a_edge2_Node000001_Node000003"><a xlink:title=" ">
<path fill="none" stroke="#63b8ff" d="M66.44,-23.76C79.45,-21.65 94.65,-19.18 108.55,-16.93"/>
<polygon fill="#63b8ff" stroke="#63b8ff" points="109.04,-20.39 118.36,-15.34 107.92,-13.48 109.04,-20.39"/>
</a>
</g>
</g>
<!-- Node4 -->
<g id="Node000004" class="node">
<title>Node4</title>
<g id="a_Node000004"><a xlink:href="_comm_8c.html#ae71d12e317420e00d9c2ce5f67ecf640" target="_top" xlink:title="Encola una trama UNER en el buffer de transmision.">
<polygon fill="white" stroke="#666666" points="311.25,-20 238.25,-20 238.25,0 311.25,0 311.25,-20"/>
<text xml:space="preserve" text-anchor="middle" x="274.75" y="-6.5" font-family="Helvetica,sans-Serif" font-size="10.00">Comm_Send</text>
</a>
</g>
</g>
<!-- Node3&#45;&gt;Node4 -->
<g id="edge3_Node000003_Node000004" class="edge">
<title>Node3&#45;&gt;Node4</title>
<g id="a_edge3_Node000003_Node000004"><a xlink:title=" ">
<path fill="none" stroke="#63b8ff" d="M184.6,-10C197.34,-10 212.35,-10 226.39,-10"/>
<polygon fill="#63b8ff" stroke="#63b8ff" points="226.36,-13.5 236.36,-10 226.36,-6.5 226.36,-13.5"/>
</a>
</g>
</g>
<!-- Node5 -->
<g id="Node000005" class="node">
<title>Node5</title>
<g id="a_Node000005"><a xlink:href="_comm_8c.html#ae2ccc0b50360e3c4a2ee0c5bd8c5960c" target="_top" xlink:title="Escribe un byte en el buffer circular de transmision.">
<polygon fill="white" stroke="#666666" points="408.25,-20 347.25,-20 347.25,0 408.25,0 408.25,-20"/>
<text xml:space="preserve" text-anchor="middle" x="377.75" y="-6.5" font-family="Helvetica,sans-Serif" font-size="10.00">putTxByte</text>
</a>
</g>
</g>
<!-- Node4&#45;&gt;Node5 -->
<g id="edge4_Node000004_Node000005" class="edge">
<title>Node4&#45;&gt;Node5</title>
<g id="a_edge4_Node000004_Node000005"><a xlink:title=" ">
<path fill="none" stroke="#63b8ff" d="M311.64,-10C319.41,-10 327.69,-10 335.65,-10"/>
<polygon fill="#63b8ff" stroke="#63b8ff" points="335.46,-13.5 345.46,-10 335.46,-6.5 335.46,-13.5"/>
</a>
</g>
</g>
</g>
</svg>
</svg>

<style type='text/css'>
<![CDATA[
[data-mouse-over-selected='false'] { opacity: 0.7; }
[data-mouse-over-selected='true']  { opacity: 1.0; }
]]>
</style>
<script type="application/ecmascript"><![CDATA[
document.addEventListener('DOMContentLoaded', (event) => {
  highlightEdges();
  highlightAdjacentNodes();
});
]]></script>
</svg>
