<?xml version="1.0" encoding="UTF-8" standalone="no"?>
<!DOCTYPE svg PUBLIC "-//W3C//DTD SVG 1.1//EN"
 "http://www.w3.org/Graphics/SVG/1.1/DTD/svg11.dtd">
<!-- Generated by graphviz version 14.1.5 (20260411.2331)
 -->
<!-- Title: ProcessIRSensors Pages: 1 -->
<svg width="413pt" height="28pt"
 viewBox="0.00 0.00 413.00 28.00" xmlns="http://www.w3.org/2000/svg" xmlns:xlink="http://www.w3.org/1999/xlink">
<g id="graph0" class="graph" transform="scale(1 1) rotate(0) translate(4 24)">
<title>ProcessIRSensors</title>
<!-- Node1 -->
<g id="Node000001" class="node">
<title>Node1</title>
<g id="a_Node000001"><a xlink:title="Lee los sensores IR S1 (PD2, pin 2), S2 (PD3, pin 3), S3 (PD4, pin 4) y envia eventos al HMI al detec...">
<polygon fill="#999999" stroke="#666666" points="98.5,-20 0,-20 0,0 98.5,0 98.5,-20"/>
<text xml:space="preserve" text-anchor="middle" x="49.25" y="-6.5" font-family="Helvetica,sans-Serif" font-size="10.00">ProcessIRSensors</text>
</a>
</g>
</g>
<!-- Node2 -->
<g id="Node000002" class="node">
<title>Node2</title>
<g id="a_Node000002"><a xlink:href="main_8c.html#a2bec24fbf70e6bfc572847a7d417a1e4" target="_top" xlink:title="Envia un evento al HMI Qt via protocolo UNER.">
<polygon fill="white" stroke="#666666" points="198.5,-20 134.5,-20 134.5,0 198.5,0 198.5,-20"/>
<text xml:space="preserve" text-anchor="middle" x="166.5" y="-6.5" font-family="Helvetica,sans-Serif" font-size="10.00">SendEvent</text>
</a>
</g>
</g>
<!-- Node1&#45;&gt;Node2 -->
<g id="edge1_Node000001_Node000002" class="edge">
<title>Node1&#45;&gt;Node2</title>
<g id="a_edge1_Node000001_Node000002"><a xlink:title=" ">
<path fill="none" stroke="#63b8ff" d="M98.79,-10C106.72,-10 114.88,-10 122.65,-10"/>
<polygon fill="#63b8ff" stroke="#63b8ff" points="122.56,-13.5 132.56,-10 122.56,-6.5 122.56,-13.5"/>
</a>
</g>
</g>
<!-- Node3 -->
<g id="Node000003" class="node">
<title>Node3</title>
<g id="a_Node000003"><a xlink:href="_comm_8c.html#ae71d12e317420e00d9c2ce5f67ecf640" target="_top" xlink:title="Encola una trama UNER en el buffer de transmision.">
<polygon fill="white" stroke="#666666" points="307.5,-20 234.5,-20 234.5,0 307.5,0 307.5,-20"/>
<text xml:space="preserve" text-anchor="middle" x="271" y="-6.5" font-family="Helvetica,sans-Serif" font-size="10.00">Comm_Send</text>
</a>
</g>
</g>
<!-- Node2&#45;&gt;Node3 -->
<g id="edge2_Node000002_Node000003" class="edge">
<title>Node2&#45;&gt;Node3</title>
<g id="a_edge2_Node000002_Node000003"><a xlink:title=" ">
<path fill="none" stroke="#63b8ff" d="M198.81,-10C206.41,-10 214.71,-10 222.87,-10"/>
<polygon fill="#63b8ff" stroke="#63b8ff" points="222.7,-13.5 232.7,-10 222.7,-6.5 222.7,-13.5"/>
</a>
</g>
</g>
<!-- Node4 -->
<g id="Node000004" class="node">
<title>Node4</title>
<g id="a_Node000004"><a xlink:href="_comm_8c.html#ae2ccc0b50360e3c4a2ee0c5bd8c5960c" target="_top" xlink:title="Escribe un byte en el buffer circular de transmision.">
<polygon fill="white" stroke="#666666" points="404.5,-20 343.5,-20 343.5,0 404.5,0 404.5,-20"/>
<text xml:space="preserve" text-anchor="middle" x="374" y="-6.5" font-family="Helvetica,sans-Serif" font-size="10.00">putTxByte</text>
</a>
</g>
</g>
<!-- Node3&#45;&gt;Node4 -->
<g id="edge3_Node000003_Node000004" class="edge">
<title>Node3&#45;&gt;Node4</title>
<g id="a_edge3_Node000003_Node000004"><a xlink:title=" ">
<path fill="none" stroke="#63b8ff" d="M307.89,-10C315.66,-10 323.94,-10 331.9,-10"/>
<polygon fill="#63b8ff" stroke="#63b8ff" points="331.71,-13.5 341.71,-10 331.71,-6.5 331.71,-13.5"/>
</a>
</g>
</g>
</g>
</svg>
