<?xml version="1.0" encoding="UTF-8" standalone="no"?>
<!DOCTYPE svg PUBLIC "-//W3C//DTD SVG 1.1//EN"
 "http://www.w3.org/Graphics/SVG/1.1/DTD/svg11.dtd">
<!-- Generated by graphviz version 14.1.5 (20260411.2331)
 -->
<!-- Title: OnActuatorTrigger Pages: 1 -->
<svg width="434pt" height="66pt"
 viewBox="0.00 0.00 434.00 66.00" xmlns="http://www.w3.org/2000/svg" xmlns:xlink="http://www.w3.org/1999/xlink">

<svg id="main" version="1.1" xmlns="http://www.w3.org/2000/svg" xmlns:xlink="http://www.w3.org/1999/xlink" xml:space="preserve">

<style type="text/css"><![CDATA[
.node, .edge {opacity: 0.7;}
.node.selected, .edge.selected {opacity: 1;}
.edge:hover path { stroke: red; }
.edge:hover polygon { stroke: red; fill: red; }
]]></style>
<script type="application/ecmascript" xlink:href="svg.min.js"/>
<svg id="graph" class="graph">
<g id="graph0" class="graph" transform="scale(1 1) rotate(0) translate(4 62)">
<title>OnActuatorTrigger</title>
<!-- Node1 -->
<g id="Node000001" class="node">
<title>Node1</title>
<g id="a_Node000001"><a xlink:title="Callback del clasificador: solicita el disparo del actuador y notifica al HMI.">
<polygon fill="#999999" stroke="#666666" points="95.5,-39 0,-39 0,-19 95.5,-19 95.5,-39"/>
<text xml:space="preserve" text-anchor="middle" x="47.75" y="-25.5" font-family="Helvetica,sans-Serif" font-size="10.00">OnActuatorTrigger</text>
</a>
</g>
</g>
<!-- Node2 -->
<g id="Node000002" class="node">
<title>Node2</title>
<g id="a_Node000002"><a xlink:href="_actuator_8c.html#aa4fc0a416ac8c36eed04620062ff1b6f" target="_top" xlink:title="Solicita el disparo del actuador.">
<polygon fill="white" stroke="#666666" points="219.5,-58 131.5,-58 131.5,-38 219.5,-38 219.5,-58"/>
<text xml:space="preserve" text-anchor="middle" x="175.5" y="-44.5" font-family="Helvetica,sans-Serif" font-size="10.00">Actuator_Trigger</text>
</a>
</g>
</g>
<!-- Node1&#45;&gt;Node2 -->
<g id="edge1_Node000001_Node000002" class="edge">
<title>Node1&#45;&gt;Node2</title>
<g id="a_edge1_Node000001_Node000002"><a xlink:title=" ">
<path fill="none" stroke="#63b8ff" d="M95.93,-36.13C103.8,-37.32 112.01,-38.56 120.04,-39.77"/>
<polygon fill="#63b8ff" stroke="#63b8ff" points="119.3,-43.2 129.71,-41.23 120.34,-36.28 119.3,-43.2"/>
</a>
</g>
</g>
<!-- Node3 -->
<g id="Node000003" class="node">
<title>Node3</title>
<g id="a_Node000003"><a xlink:href="main_8c.html#a2bec24fbf70e6bfc572847a7d417a1e4" target="_top" xlink:title="Envia un evento al HMI Qt via protocolo UNER.">
<polygon fill="white" stroke="#666666" points="207.5,-20 143.5,-20 143.5,0 207.5,0 207.5,-20"/>
<text xml:space="preserve" text-anchor="middle" x="175.5" y="-6.5" font-family="Helvetica,sans-Serif" font-size="10.00">SendEvent</text>
</a>
</g>
</g>
<!-- Node1&#45;&gt;Node3 -->
<g id="edge2_Node000001_Node000003" class="edge">
<title>Node1&#45;&gt;Node3</title>
<g id="a_edge2_Node000001_Node000003"><a xlink:title=" ">
<path fill="none" stroke="#63b8ff" d="M95.93,-21.87C107.75,-20.09 120.35,-18.18 131.92,-16.43"/>
<polygon fill="#63b8ff" stroke="#63b8ff" points="132.22,-19.93 141.59,-14.97 131.18,-13.01 132.22,-19.93"/>
</a>
</g>
</g>
<!-- Node4 -->
<g id="Node000004" class="node">
<title>Node4</title>
<g id="a_Node000004"><a xlink:href="_comm_8c.html#ae71d12e317420e00d9c2ce5f67ecf640" target="_top" xlink:title="Encola una trama UNER en el buffer de transmision.">
<polygon fill="white" stroke="#666666" points="328.5,-20 255.5,-20 255.5,0 328.5,0 328.5,-20"/>
<text xml:space="preserve" text-anchor="middle" x="292" y="-6.5" font-family="Helvetica,sans-Serif" font-size="10.00">Comm_Send</text>
</a>
</g>
</g>
<!-- Node3&#45;&gt;Node4 -->
<g id="edge3_Node000003_Node000004" class="edge">
<title>Node3&#45;&gt;Node4</title>
<g id="a_edge3_Node000003_Node000004"><a xlink:title=" ">
<path fill="none" stroke="#63b8ff" d="M207.79,-10C218.93,-10 231.73,-10 243.9,-10"/>
<polygon fill="#63b8ff" stroke="#63b8ff" points="243.79,-13.5 253.79,-10 243.79,-6.5 243.79,-13.5"/>
</a>
</g>
</g>
<!-- Node5 -->
<g id="Node000005" class="node">
<title>Node5</title>
<g id="a_Node000005"><a xlink:href="_comm_8c.html#ae2ccc0b50360e3c4a2ee0c5bd8c5960c" target="_top" xlink:title="Escribe un byte en el buffer circular de transmision.">
<polygon fill="white" stroke="#666666" points="425.5,-20 364.5,-20 364.5,0 425.5,0 425.5,-20"/>
<text xml:space="preserve" text-anchor="middle" x="395" y="-6.5" font-family="Helvetica,sans-Serif" font-size="10.00">putTxByte</text>
</a>
</g>
</g>
<!-- Node4&#45;&gt;Node5 -->
<g id="edge4_Node000004_Node000005" class="edge">
<title>Node4&#45;&gt;Node5</title>
<g id="a_edge4_Node000004_Node000005"><a xlink:title=" ">
<path fill="none" stroke="#63b8ff" d="M328.89,-10C336.66,-10 344.94,-10 352.9,-10"/>
<polygon fill="#63b8ff" stroke="#63b8ff" points="352.71,-13.5 362.71,-10 352.71,-6.5 352.71,-13.5"/>
</a>
</g>
</g>
</g>
</svg>
</svg>

<style type='text/css'>
<![CDATA[
[data-mouse-over-selected='false'] { opacity: 0.7; }
[data-mouse-over-selected='true']  { opacity: 1.0; }
]]>
</style>
<script type="application/ecmascript"><![CDATA[
document.addEventListener('DOMContentLoaded', (event) => {
  highlightEdges();
  highlightAdjacentNodes();
});
]]></script>
</svg>
