<?xml version="1.0" encoding="UTF-8" standalone="no"?>
<!DOCTYPE svg PUBLIC "-//W3C//DTD SVG 1.1//EN"
 "http://www.w3.org/Graphics/SVG/1.1/DTD/svg11.dtd">
<!-- Generated by graphviz version 14.1.5 (20260411.2331)
 -->
<!-- Title: main.c Pages: 1 -->
<!--zoomable 196 -->

<svg id="main" version="1.1" xmlns="http://www.w3.org/2000/svg" xmlns:xlink="http://www.w3.org/1999/xlink" xml:space="preserve" onload="init(evt)">

<style type="text/css"><![CDATA[
.node, .edge {opacity: 0.7;}
.node.selected, .edge.selected {opacity: 1;}
.edge:hover path { stroke: red; }
.edge:hover polygon { stroke: red; fill: red; }
]]></style>

<defs>
  <circle id="rim" cx="0" cy="0" r="7"/>
  <circle id="rim2" cx="0" cy="0" r="3.5"/>
  <g id="zoomPlus">
    <use xlink:href="#rim" fill="#404040"><set attributeName="fill" to="#808080" begin="zoomplus.mouseover" end="zoomplus.mouseout"/></use>
    <path d="M-4,0h8M0,-4v8" fill="none" stroke="white" stroke-width="1.5" pointer-events="none"/>
  </g>
  <g id="zoomMin">
    <use xlink:href="#rim" fill="#404040"><set attributeName="fill" to="#808080" begin="zoomminus.mouseover" end="zoomminus.mouseout"/></use>
    <path d="M-4,0h8" fill="none" stroke="white" stroke-width="1.5" pointer-events="none"/>
  </g>
  <g id="arrowUp" transform="translate(30 24)">
    <use xlink:href="#rim"/>
    <path pointer-events="none" fill="none" stroke="white" stroke-width="1.5" d="M0,-3.0v7 M-2.5,-0.5L0,-3.0L2.5,-0.5"/>
  </g>
  <g id="arrowRight" transform="rotate(90) translate(36 -43)">
    <use xlink:href="#rim"/>
    <path pointer-events="none" fill="none" stroke="white" stroke-width="1.5" d="M0,-3.0v7 M-2.5,-0.5L0,-3.0L2.5,-0.5"/>
  </g>
  <g id="arrowDown" transform="rotate(180) translate(-30 -48)">
    <use xlink:href="#rim"/>
    <path pointer-events="none" fill="none" stroke="white" stroke-width="1.5" d="M0,-3.0v7 M-2.5,-0.5L0,-3.0L2.5,-0.5"/>
  </g>
  <g id="arrowLeft" transform="rotate(270) translate(-36 17)">
    <use xlink:href="#rim"/>
    <path pointer-events="none" fill="none" stroke="white" stroke-width="1.5" d="M0,-3.0v7 M-2.5,-0.5L0,-3.0L2.5,-0.5"/>
  </g>
  <g id="resetDef">
    <use xlink:href="#rim2" fill="#404040"><set attributeName="fill" to="#808080" begin="reset.mouseover" end="reset.mouseout"/></use>
  </g>
</defs>
<script type="application/ecmascript">
var viewWidth = 509;
var viewHeight = 196;
var sectionId = 'dynsection-0';
</script>
<script type="application/ecmascript" xlink:href="svg.min.js"/>
<svg id="graph" class="graph">
<g id="viewport">
<title>main.c</title>
<!-- Node1 -->
<g id="Node000001" class="node">
<title>Node1</title>
<g id="a_Node000001"><a xlink:title="Aplicacion principal del clasificador de cajas en cinta transportadora real.">
<polygon fill="#999999" stroke="#666666" points="274.75,-188 229.5,-188 229.5,-168 274.75,-168 274.75,-188"/>
<text xml:space="preserve" text-anchor="middle" x="252.12" y="-174.5" font-family="Helvetica,sans-Serif" font-size="10.00">main.c</text>
</a>
</g>
</g>
<!-- Node2 -->
<g id="Node000002" class="node">
<title>Node2</title>
<g id="a_Node000002"><a xlink:title=" ">
<polygon fill="#e0e0e0" stroke="#999999" points="48.25,-132 0,-132 0,-112 48.25,-112 48.25,-132"/>
<text xml:space="preserve" text-anchor="middle" x="24.12" y="-118.5" font-family="Helvetica,sans-Serif" font-size="10.00">avr/io.h</text>
</a>
</g>
</g>
<!-- Node1&#45;&gt;Node2 -->
<g id="edge1_Node000001_Node000002" class="edge">
<title>Node1&#45;&gt;Node2</title>
<g id="a_edge1_Node000001_Node000002"><a xlink:title=" ">
<path fill="none" stroke="#63b8ff" d="M229.24,-172.03C194.59,-164.43 126.5,-149.25 59.37,-132.49"/>
<polygon fill="#63b8ff" stroke="#63b8ff" points="60.62,-129.2 50.07,-130.16 58.92,-135.99 60.62,-129.2"/>
</a>
</g>
</g>
<!-- Node3 -->
<g id="Node000003" class="node">
<title>Node3</title>
<g id="a_Node000003"><a xlink:title=" ">
<polygon fill="#e0e0e0" stroke="#999999" points="142.12,-132 66.12,-132 66.12,-112 142.12,-112 142.12,-132"/>
<text xml:space="preserve" text-anchor="middle" x="104.12" y="-118.5" font-family="Helvetica,sans-Serif" font-size="10.00">avr/interrupt.h</text>
</a>
</g>
</g>
<!-- Node1&#45;&gt;Node3 -->
<g id="edge2_Node000001_Node000003" class="edge">
<title>Node1&#45;&gt;Node3</title>
<g id="a_edge2_Node000001_Node000003"><a xlink:title=" ">
<path fill="none" stroke="#63b8ff" d="M229,-168.56C205.42,-159.96 168.48,-146.48 140.89,-136.41"/>
<polygon fill="#63b8ff" stroke="#63b8ff" points="142.09,-133.13 131.5,-132.99 139.69,-139.7 142.09,-133.13"/>
</a>
</g>
</g>
<!-- Node4 -->
<g id="Node000004" class="node">
<title>Node4</title>
<g id="a_Node000004"><a xlink:href="_h_c_s_r04_8h.html" target="_top" xlink:title="Driver para sensor ultrasonico HC&#45;SR04.">
<polygon fill="white" stroke="#666666" points="116.12,-76 52.12,-76 52.12,-56 116.12,-56 116.12,-76"/>
<text xml:space="preserve" text-anchor="middle" x="84.12" y="-62.5" font-family="Helvetica,sans-Serif" font-size="10.00">HCSR04.h</text>
</a>
</g>
</g>
<!-- Node1&#45;&gt;Node4 -->
<g id="edge3_Node000001_Node000004" class="edge">
<title>Node1&#45;&gt;Node4</title>
<g id="a_edge3_Node000001_Node000004"><a xlink:title=" ">
<path fill="none" stroke="#63b8ff" d="M237.8,-167.62C208.91,-148.71 143.41,-105.82 107.97,-82.61"/>
<polygon fill="#63b8ff" stroke="#63b8ff" points="109.96,-79.73 99.68,-77.18 106.13,-85.59 109.96,-79.73"/>
</a>
</g>
</g>
<!-- Node6 -->
<g id="Node000006" class="node">
<title>Node6</title>
<g id="a_Node000006"><a xlink:href="_comm_8h.html" target="_top" xlink:title="Modulo de comunicacion serie con protocolo UNER.">
<polygon fill="white" stroke="#666666" points="251.88,-132 198.38,-132 198.38,-112 251.88,-112 251.88,-132"/>
<text xml:space="preserve" text-anchor="middle" x="225.12" y="-118.5" font-family="Helvetica,sans-Serif" font-size="10.00">Comm.h</text>
</a>
</g>
</g>
<!-- Node1&#45;&gt;Node6 -->
<g id="edge5_Node000001_Node000006" class="edge">
<title>Node1&#45;&gt;Node6</title>
<g id="a_edge5_Node000001_Node000006"><a xlink:title=" ">
<path fill="none" stroke="#63b8ff" d="M247.42,-167.59C243.98,-160.7 239.18,-151.1 234.91,-142.57"/>
<polygon fill="#63b8ff" stroke="#63b8ff" points="238.05,-141.03 230.45,-133.65 231.79,-144.16 238.05,-141.03"/>
</a>
</g>
</g>
<!-- Node8 -->
<g id="Node000008" class="node">
<title>Node8</title>
<g id="a_Node000008"><a xlink:href="_actuator_8h.html" target="_top" xlink:title="Modulo de control de actuadores (pistones/brazos) de la cinta.">
<polygon fill="white" stroke="#666666" points="310.62,-76 249.62,-76 249.62,-56 310.62,-56 310.62,-76"/>
<text xml:space="preserve" text-anchor="middle" x="280.12" y="-62.5" font-family="Helvetica,sans-Serif" font-size="10.00">Actuator.h</text>
</a>
</g>
</g>
<!-- Node1&#45;&gt;Node8 -->
<g id="edge9_Node000001_Node000008" class="edge">
<title>Node1&#45;&gt;Node8</title>
<g id="a_edge9_Node000001_Node000008"><a xlink:title=" ">
<path fill="none" stroke="#63b8ff" d="M254.51,-167.62C259.02,-149.92 268.86,-111.24 274.95,-87.32"/>
<polygon fill="#63b8ff" stroke="#63b8ff" points="278.3,-88.38 277.37,-77.82 271.51,-86.65 278.3,-88.38"/>
</a>
</g>
</g>
<!-- Node9 -->
<g id="Node000009" class="node">
<title>Node9</title>
<g id="a_Node000009"><a xlink:href="_classifier_8h.html" target="_top" xlink:title="Clasificador de cajas para cinta transportadora (modo open&#45;loop).">
<polygon fill="white" stroke="#666666" points="393.88,-76 328.38,-76 328.38,-56 393.88,-56 393.88,-76"/>
<text xml:space="preserve" text-anchor="middle" x="361.12" y="-62.5" font-family="Helvetica,sans-Serif" font-size="10.00">Classifier.h</text>
</a>
</g>
</g>
<!-- Node1&#45;&gt;Node9 -->
<g id="edge11_Node000001_Node000009" class="edge">
<title>Node1&#45;&gt;Node9</title>
<g id="a_edge11_Node000001_Node000009"><a xlink:title=" ">
<path fill="none" stroke="#63b8ff" d="M261.42,-167.62C279.68,-149.19 320.49,-108.01 343.84,-84.44"/>
<polygon fill="#63b8ff" stroke="#63b8ff" points="346.24,-87 350.79,-77.43 341.27,-82.07 346.24,-87"/>
</a>
</g>
</g>
<!-- Node10 -->
<g id="Node000010" class="node">
<title>Node10</title>
<g id="a_Node000010"><a xlink:href="_servo_8h.html" target="_top" xlink:title="Driver PWM por software para servomotores SG90.">
<polygon fill="white" stroke="#666666" points="462,-76 412.25,-76 412.25,-56 462,-56 462,-76"/>
<text xml:space="preserve" text-anchor="middle" x="437.12" y="-62.5" font-family="Helvetica,sans-Serif" font-size="10.00">Servo.h</text>
</a>
</g>
</g>
<!-- Node1&#45;&gt;Node10 -->
<g id="edge13_Node000001_Node000010" class="edge">
<title>Node1&#45;&gt;Node10</title>
<g id="a_edge13_Node000001_Node000010"><a xlink:title=" ">
<path fill="none" stroke="#63b8ff" d="M267.9,-167.62C299.98,-148.54 373.08,-105.08 411.87,-82.02"/>
<polygon fill="#63b8ff" stroke="#63b8ff" points="413.28,-85.25 420.09,-77.13 409.71,-79.23 413.28,-85.25"/>
</a>
</g>
</g>
<!-- Node11 -->
<g id="Node000011" class="node">
<title>Node11</title>
<g id="a_Node000011"><a xlink:href="_protocol_8h.html" target="_top" xlink:title="Definiciones del protocolo de comunicacion entre MCU y HMI Qt.">
<polygon fill="white" stroke="#666666" points="501.25,-132 441,-132 441,-112 501.25,-112 501.25,-132"/>
<text xml:space="preserve" text-anchor="middle" x="471.12" y="-118.5" font-family="Helvetica,sans-Serif" font-size="10.00">Protocol.h</text>
</a>
</g>
</g>
<!-- Node1&#45;&gt;Node11 -->
<g id="edge15_Node000001_Node000011" class="edge">
<title>Node1&#45;&gt;Node11</title>
<g id="a_edge15_Node000001_Node000011"><a xlink:title=" ">
<path fill="none" stroke="#63b8ff" d="M275.15,-171.32C311.8,-162.29 383.93,-144.5 429.72,-133.21"/>
<polygon fill="#63b8ff" stroke="#63b8ff" points="430.41,-136.64 439.29,-130.85 428.74,-129.85 430.41,-136.64"/>
</a>
</g>
</g>
<!-- Node5 -->
<g id="Node000005" class="node">
<title>Node5</title>
<g id="a_Node000005"><a xlink:title=" ">
<polygon fill="#e0e0e0" stroke="#999999" points="304.25,-20 256,-20 256,0 304.25,0 304.25,-20"/>
<text xml:space="preserve" text-anchor="middle" x="280.12" y="-6.5" font-family="Helvetica,sans-Serif" font-size="10.00">stdint.h</text>
</a>
</g>
</g>
<!-- Node4&#45;&gt;Node5 -->
<g id="edge4_Node000004_Node000005" class="edge">
<title>Node4&#45;&gt;Node5</title>
<g id="a_edge4_Node000004_Node000005"><a xlink:title=" ">
<path fill="none" stroke="#63b8ff" d="M116.49,-56.08C151.81,-46.35 208.18,-30.82 244.67,-20.77"/>
<polygon fill="#63b8ff" stroke="#63b8ff" points="245.6,-24.14 254.31,-18.11 243.74,-17.39 245.6,-24.14"/>
</a>
</g>
</g>
<!-- Node6&#45;&gt;Node5 -->
<g id="edge6_Node000006_Node000005" class="edge">
<title>Node6&#45;&gt;Node5</title>
<g id="a_edge6_Node000006_Node000005"><a xlink:title=" ">
<path fill="none" stroke="#63b8ff" d="M204.17,-111.53C180.76,-99.6 148.03,-77.98 163.12,-56 181.34,-29.47 217.55,-18.58 244.89,-14.1"/>
<polygon fill="#63b8ff" stroke="#63b8ff" points="245.07,-17.61 254.49,-12.76 244.1,-10.68 245.07,-17.61"/>
</a>
</g>
</g>
<!-- Node7 -->
<g id="Node000007" class="node">
<title>Node7</title>
<g id="a_Node000007"><a xlink:href="_ring_buf_8h.html" target="_top" xlink:title="Buffer circular (ring buffer) de proposito general.">
<polygon fill="white" stroke="#666666" points="231.88,-76 172.38,-76 172.38,-56 231.88,-56 231.88,-76"/>
<text xml:space="preserve" text-anchor="middle" x="202.12" y="-62.5" font-family="Helvetica,sans-Serif" font-size="10.00">RingBuf.h</text>
</a>
</g>
</g>
<!-- Node6&#45;&gt;Node7 -->
<g id="edge7_Node000006_Node000007" class="edge">
<title>Node6&#45;&gt;Node7</title>
<g id="a_edge7_Node000006_Node000007"><a xlink:title=" ">
<path fill="none" stroke="#63b8ff" d="M221.12,-111.59C218.22,-104.78 214.19,-95.32 210.58,-86.86"/>
<polygon fill="#63b8ff" stroke="#63b8ff" points="213.82,-85.52 206.68,-77.69 207.38,-88.26 213.82,-85.52"/>
</a>
</g>
</g>
<!-- Node7&#45;&gt;Node5 -->
<g id="edge8_Node000007_Node000005" class="edge">
<title>Node7&#45;&gt;Node5</title>
<g id="a_edge8_Node000007_Node000005"><a xlink:title=" ">
<path fill="none" stroke="#63b8ff" d="M215.71,-55.59C227.16,-47.67 243.79,-36.16 257.28,-26.82"/>
<polygon fill="#63b8ff" stroke="#63b8ff" points="258.96,-29.91 265.19,-21.34 254.97,-24.16 258.96,-29.91"/>
</a>
</g>
</g>
<!-- Node8&#45;&gt;Node5 -->
<g id="edge10_Node000008_Node000005" class="edge">
<title>Node8&#45;&gt;Node5</title>
<g id="a_edge10_Node000008_Node000005"><a xlink:title=" ">
<path fill="none" stroke="#63b8ff" d="M280.12,-55.59C280.12,-49.01 280.12,-39.96 280.12,-31.73"/>
<polygon fill="#63b8ff" stroke="#63b8ff" points="283.63,-31.81 280.13,-21.81 276.63,-31.81 283.63,-31.81"/>
</a>
</g>
</g>
<!-- Node9&#45;&gt;Node5 -->
<g id="edge12_Node000009_Node000005" class="edge">
<title>Node9&#45;&gt;Node5</title>
<g id="a_edge12_Node000009_Node000005"><a xlink:title=" ">
<path fill="none" stroke="#63b8ff" d="M347.02,-55.59C335.13,-47.67 317.86,-36.16 303.85,-26.82"/>
<polygon fill="#63b8ff" stroke="#63b8ff" points="305.87,-23.95 295.6,-21.32 301.98,-29.78 305.87,-23.95"/>
</a>
</g>
</g>
<!-- Node10&#45;&gt;Node5 -->
<g id="edge14_Node000010_Node000005" class="edge">
<title>Node10&#45;&gt;Node5</title>
<g id="a_edge14_Node000010_Node000005"><a xlink:title=" ">
<path fill="none" stroke="#63b8ff" d="M411.9,-56.32C385.69,-47.31 344.48,-33.13 315.13,-23.04"/>
<polygon fill="#63b8ff" stroke="#63b8ff" points="316.54,-19.82 305.94,-19.88 314.26,-26.44 316.54,-19.82"/>
</a>
</g>
</g>
<!-- Node11&#45;&gt;Node5 -->
<g id="edge16_Node000011_Node000005" class="edge">
<title>Node11&#45;&gt;Node5</title>
<g id="a_edge16_Node000011_Node000005"><a xlink:title=" ">
<path fill="none" stroke="#63b8ff" d="M474.32,-111.88C478.5,-98.16 483.87,-72.1 471.12,-56 452.13,-32.01 365.78,-19.54 315.93,-14.22"/>
<polygon fill="#63b8ff" stroke="#63b8ff" points="316.51,-10.76 306.2,-13.23 315.8,-17.73 316.51,-10.76"/>
</a>
</g>
</g>
</g>
</svg>

<g id="navigator" transform="translate(0 0)" fill="#404254">
  <rect fill="#f2f5e9" fill-opacity="0.5" stroke="#606060" stroke-width=".5" x="0" y="0" width="60" height="60"/>
  <use id="zoomplus" xlink:href="#zoomPlus" x="17" y="9" onmousedown="handleZoom(evt,'in')"/>
  <use id="zoomminus" xlink:href="#zoomMin" x="42" y="9" onmousedown="handleZoom(evt,'out')"/>
  <use id="reset" xlink:href="#resetDef" x="30" y="36" onmousedown="handleReset()"/>
   <use id="arrowup" xlink:href="#arrowUp" x="0" y="0" onmousedown="handlePan(0,-1)"/>
  <use id="arrowright" xlink:href="#arrowRight" x="0" y="0" onmousedown="handlePan(1,0)"/>
  <use id="arrowdown" xlink:href="#arrowDown" x="0" y="0" onmousedown="handlePan(0,1)"/>
  <use id="arrowleft" xlink:href="#arrowLeft" x="0" y="0" onmousedown="handlePan(-1,0)"/>
</g>
<svg viewBox="0 0 15 15" width="100%" height="30px" preserveAspectRatio="xMaxYMin meet">
 <g id="arrow_out" transform="scale(0.3 0.3)">
  <a xlink:href="main_8c__incl_org.svg" target="_base">
   <rect id="button" ry="5" rx="5" y="6" x="6" height="38" width="38"
        fill="#f2f5e9" fill-opacity="0.5" stroke="#606060" stroke-width="1.0"/>
   <path id="arrow"
     d="M 11.500037,31.436501 C 11.940474,20.09759 22.043105,11.32322 32.158766,21.979434 L 37.068811,17.246167 C 37.068811,17.246167 37.088388,32 37.088388,32 L 22.160133,31.978069 C 22.160133,31.978069 26.997745,27.140456 26.997745,27.140456 C 18.528582,18.264221 13.291696,25.230495 11.500037,31.436501 z"
     style="fill:#404040;"/>
  </a>
 </g>
</svg>

<style type='text/css'>
<![CDATA[
[data-mouse-over-selected='false'] { opacity: 0.7; }
[data-mouse-over-selected='true']  { opacity: 1.0; }
]]>
</style>
<script type="application/ecmascript"><![CDATA[
document.addEventListener('DOMContentLoaded', (event) => {
  highlightEdges();
  highlightAdjacentNodes();
});
]]></script>
</svg>
