<?xml version="1.0" encoding="UTF-8" standalone="no"?>
<!DOCTYPE svg PUBLIC "-//W3C//DTD SVG 1.1//EN"
 "http://www.w3.org/Graphics/SVG/1.1/DTD/svg11.dtd">
<!-- Generated by graphviz version 14.1.5 (20260411.2331)
 -->
<!-- Title: main Pages: 1 -->
<svg width="522pt" height="788pt"
 viewBox="0.00 0.00 522.00 788.00" xmlns="http://www.w3.org/2000/svg" xmlns:xlink="http://www.w3.org/1999/xlink">
<g id="graph0" class="graph" transform="scale(1 1) rotate(0) translate(4 784)">
<title>main</title>
<!-- Node1 -->
<g id="Node000001" class="node">
<title>Node1</title>
<g id="a_Node000001"><a xlink:title=" ">
<polygon fill="#999999" stroke="#666666" points="37,-400 0,-400 0,-380 37,-380 37,-400"/>
<text xml:space="preserve" text-anchor="middle" x="18.5" y="-386.5" font-family="Helvetica,sans-Serif" font-size="10.00">main</text>
</a>
</g>
</g>
<!-- Node2 -->
<g id="Node000002" class="node">
<title>Node2</title>
<g id="a_Node000002"><a xlink:href="_actuator_8c.html#a8704bcbcdf61ac725500bfbbf9db632c" target="_top" xlink:title="Inicializa un actuador.">
<polygon fill="white" stroke="#666666" points="158,-780 86.5,-780 86.5,-760 158,-760 158,-780"/>
<text xml:space="preserve" text-anchor="middle" x="122.25" y="-766.5" font-family="Helvetica,sans-Serif" font-size="10.00">Actuator_Init</text>
</a>
</g>
</g>
<!-- Node1&#45;&gt;Node2 -->
<g id="edge1_Node000001_Node000002" class="edge">
<title>Node1&#45;&gt;Node2</title>
<g id="a_edge1_Node000001_Node000002"><a xlink:title=" ">
<path fill="none" stroke="#63b8ff" d="M19.67,-400.33C20.77,-453.34 28.17,-694.57 73,-751 74.19,-752.5 75.52,-753.89 76.96,-755.16"/>
<polygon fill="#63b8ff" stroke="#63b8ff" points="74.6,-757.79 84.85,-760.49 78.52,-751.99 74.6,-757.79"/>
</a>
</g>
</g>
<!-- Node3 -->
<g id="Node000003" class="node">
<title>Node3</title>
<g id="a_Node000003"><a xlink:href="_actuator_8c.html#a0b8b1cc85ac7f97e5b64df441c77f4ba" target="_top" xlink:title="Ejecuta un paso de la FSM del actuador.">
<polygon fill="white" stroke="#666666" points="169.25,-742 75.25,-742 75.25,-722 169.25,-722 169.25,-742"/>
<text xml:space="preserve" text-anchor="middle" x="122.25" y="-728.5" font-family="Helvetica,sans-Serif" font-size="10.00">Actuator_Process</text>
</a>
</g>
</g>
<!-- Node1&#45;&gt;Node3 -->
<g id="edge2_Node000001_Node000003" class="edge">
<title>Node1&#45;&gt;Node3</title>
<g id="a_edge2_Node000001_Node000003"><a xlink:title=" ">
<path fill="none" stroke="#63b8ff" d="M19.87,-400.21C21.84,-449.56 32.62,-663.05 73,-713 73.44,-713.55 73.9,-714.08 74.38,-714.59"/>
<polygon fill="#63b8ff" stroke="#63b8ff" points="72.11,-717.26 82.12,-720.75 76.47,-711.78 72.11,-717.26"/>
</a>
</g>
</g>
<!-- Node4 -->
<g id="Node000004" class="node">
<title>Node4</title>
<g id="a_Node000004"><a xlink:href="_classifier_8c.html#a3093a58c1669eec3c79c5d89b01876e8" target="_top" xlink:title="Inicializa el clasificador con las asignaciones de salida.">
<polygon fill="white" stroke="#666666" points="160.25,-704 84.25,-704 84.25,-684 160.25,-684 160.25,-704"/>
<text xml:space="preserve" text-anchor="middle" x="122.25" y="-690.5" font-family="Helvetica,sans-Serif" font-size="10.00">Classifier_Init</text>
</a>
</g>
</g>
<!-- Node1&#45;&gt;Node4 -->
<g id="edge3_Node000001_Node000004" class="edge">
<title>Node1&#45;&gt;Node4</title>
<g id="a_edge3_Node000001_Node000004"><a xlink:title=" ">
<path fill="none" stroke="#63b8ff" d="M20.12,-400.21C23.06,-445.93 37.08,-631.54 73,-675 73.56,-675.68 74.15,-676.33 74.76,-676.96"/>
<polygon fill="#63b8ff" stroke="#63b8ff" points="72.57,-679.69 82.64,-682.99 76.82,-674.13 72.57,-679.69"/>
</a>
</g>
</g>
<!-- Node5 -->
<g id="Node000005" class="node">
<title>Node5</title>
<g id="a_Node000005"><a xlink:href="_classifier_8c.html#aff4fc5a90e02fcacda8cc23afa8db306" target="_top" xlink:title="Decrementa los timers de las cajas en transito y dispara los servos.">
<polygon fill="white" stroke="#666666" points="171.5,-666 73,-666 73,-646 171.5,-646 171.5,-666"/>
<text xml:space="preserve" text-anchor="middle" x="122.25" y="-652.5" font-family="Helvetica,sans-Serif" font-size="10.00">Classifier_Process</text>
</a>
</g>
</g>
<!-- Node1&#45;&gt;Node5 -->
<g id="edge4_Node000001_Node000005" class="edge">
<title>Node1&#45;&gt;Node5</title>
<g id="a_edge4_Node000001_Node000005"><a xlink:title=" ">
<path fill="none" stroke="#63b8ff" d="M20.44,-400.23C24.47,-442.11 41.53,-599.97 73,-637 73.46,-637.54 73.93,-638.06 74.42,-638.56"/>
<polygon fill="#63b8ff" stroke="#63b8ff" points="72.21,-641.28 82.27,-644.63 76.49,-635.75 72.21,-641.28"/>
</a>
</g>
</g>
<!-- Node7 -->
<g id="Node000007" class="node">
<title>Node7</title>
<g id="a_Node000007"><a xlink:href="_comm_8c.html#a6cfe672dc0c2ab687ef544a79edf456e" target="_top" xlink:title="Inicializa el modulo de comunicacion y el hardware UART.">
<polygon fill="white" stroke="#666666" points="154.25,-628 90.25,-628 90.25,-608 154.25,-608 154.25,-628"/>
<text xml:space="preserve" text-anchor="middle" x="122.25" y="-614.5" font-family="Helvetica,sans-Serif" font-size="10.00">Comm_Init</text>
</a>
</g>
</g>
<!-- Node1&#45;&gt;Node7 -->
<g id="edge6_Node000001_Node000007" class="edge">
<title>Node1&#45;&gt;Node7</title>
<g id="a_edge6_Node000001_Node000007"><a xlink:title=" ">
<path fill="none" stroke="#63b8ff" d="M19.06,-400.18C18.21,-433.23 19.96,-538.91 73,-599 75.05,-601.32 77.42,-603.37 79.99,-605.16"/>
<polygon fill="#63b8ff" stroke="#63b8ff" points="78.17,-608.15 88.62,-609.91 81.55,-602.02 78.17,-608.15"/>
</a>
</g>
</g>
<!-- Node9 -->
<g id="Node000009" class="node">
<title>Node9</title>
<g id="a_Node000009"><a xlink:href="_comm_8c.html#af20278a74728fea0f1f369ef36e0880b" target="_top" xlink:title="Procesa el modulo de comunicacion: envio y recepcion.">
<polygon fill="white" stroke="#666666" points="165.5,-590 79,-590 79,-570 165.5,-570 165.5,-590"/>
<text xml:space="preserve" text-anchor="middle" x="122.25" y="-576.5" font-family="Helvetica,sans-Serif" font-size="10.00">Comm_Process</text>
</a>
</g>
</g>
<!-- Node1&#45;&gt;Node9 -->
<g id="edge8_Node000001_Node000009" class="edge">
<title>Node1&#45;&gt;Node9</title>
<g id="a_edge8_Node000001_Node000009"><a xlink:title=" ">
<path fill="none" stroke="#63b8ff" d="M19.77,-400.36C21.08,-429.55 28.71,-513.41 73,-561 73.7,-561.75 74.43,-562.47 75.19,-563.16"/>
<polygon fill="#63b8ff" stroke="#63b8ff" points="72.82,-565.77 83,-568.69 76.86,-560.06 72.82,-565.77"/>
</a>
</g>
</g>
<!-- Node10 -->
<g id="Node000010" class="node">
<title>Node10</title>
<g id="a_Node000010"><a xlink:href="_h_c_s_r04_8c.html#a0f3d7d9eb39dacbfd9f6a644a9e4b428" target="_top" xlink:title="Inicializa el driver HC&#45;SR04.">
<polygon fill="white" stroke="#666666" points="159.5,-552 85,-552 85,-532 159.5,-532 159.5,-552"/>
<text xml:space="preserve" text-anchor="middle" x="122.25" y="-538.5" font-family="Helvetica,sans-Serif" font-size="10.00">HCSR04_Init</text>
</a>
</g>
</g>
<!-- Node1&#45;&gt;Node10 -->
<g id="edge9_Node000001_Node000010" class="edge">
<title>Node1&#45;&gt;Node10</title>
<g id="a_edge9_Node000001_Node000010"><a xlink:title=" ">
<path fill="none" stroke="#63b8ff" d="M20.82,-400.16C24.51,-424.63 37.14,-487.41 73,-523 73.86,-523.86 74.77,-524.68 75.71,-525.46"/>
<polygon fill="#63b8ff" stroke="#63b8ff" points="73.44,-528.15 83.72,-530.74 77.3,-522.31 73.44,-528.15"/>
</a>
</g>
</g>
<!-- Node11 -->
<g id="Node000011" class="node">
<title>Node11</title>
<g id="a_Node000011"><a xlink:href="_h_c_s_r04_8c.html#ad8fab390179788a942247f8019f00361" target="_top" xlink:title="Ejecuta un paso de la FSM del sensor HC&#45;SR04 (no bloqueante).">
<polygon fill="white" stroke="#666666" points="170.75,-514 73.75,-514 73.75,-494 170.75,-494 170.75,-514"/>
<text xml:space="preserve" text-anchor="middle" x="122.25" y="-500.5" font-family="Helvetica,sans-Serif" font-size="10.00">HCSR04_Process</text>
</a>
</g>
</g>
<!-- Node1&#45;&gt;Node11 -->
<g id="edge10_Node000001_Node000011" class="edge">
<title>Node1&#45;&gt;Node11</title>
<g id="a_edge10_Node000001_Node000011"><a xlink:title=" ">
<path fill="none" stroke="#63b8ff" d="M22.72,-400.37C29.2,-419.63 45.59,-461.13 73,-485 74.23,-486.07 75.53,-487.09 76.88,-488.05"/>
<polygon fill="#63b8ff" stroke="#63b8ff" points="74.68,-490.81 85.07,-492.87 78.23,-484.78 74.68,-490.81"/>
</a>
</g>
</g>
<!-- Node12 -->
<g id="Node000012" class="node">
<title>Node12</title>
<g id="a_Node000012"><a xlink:href="main_8c.html#a0dc9b955fb9b7e24a7c87f98f363b981" target="_top" xlink:title="Controla un actuador: mueve el servo fisico.">
<polygon fill="white" stroke="#666666" points="156.88,-476 87.62,-476 87.62,-456 156.88,-456 156.88,-476"/>
<text xml:space="preserve" text-anchor="middle" x="122.25" y="-462.5" font-family="Helvetica,sans-Serif" font-size="10.00">hw_Act_Set</text>
</a>
</g>
</g>
<!-- Node1&#45;&gt;Node12 -->
<g id="edge11_Node000001_Node000012" class="edge">
<title>Node1&#45;&gt;Node12</title>
<g id="a_edge11_Node000001_Node000012"><a xlink:title=" ">
<path fill="none" stroke="#63b8ff" d="M26.76,-400.15C36.17,-412.67 53.68,-433.89 73,-447 74.82,-448.23 76.72,-449.4 78.69,-450.51"/>
<polygon fill="#63b8ff" stroke="#63b8ff" points="76.97,-453.56 87.48,-454.87 80.08,-447.29 76.97,-453.56"/>
</a>
</g>
</g>
<!-- Node14 -->
<g id="Node000014" class="node">
<title>Node14</title>
<g id="a_Node000014"><a xlink:href="main_8c.html#ae9fce17c73c40d30a50ba0e8fd6767cb" target="_top" xlink:title=" ">
<polygon fill="white" stroke="#666666" points="161.75,-438 82.75,-438 82.75,-418 161.75,-418 161.75,-438"/>
<text xml:space="preserve" text-anchor="middle" x="122.25" y="-424.5" font-family="Helvetica,sans-Serif" font-size="10.00">hw_echo_read</text>
</a>
</g>
</g>
<!-- Node1&#45;&gt;Node14 -->
<g id="edge13_Node000001_Node000014" class="edge">
<title>Node1&#45;&gt;Node14</title>
<g id="a_edge13_Node000001_Node000014"><a xlink:title=" ">
<path fill="none" stroke="#63b8ff" d="M37.22,-396.62C49.81,-401.32 67.18,-407.81 82.87,-413.67"/>
<polygon fill="#63b8ff" stroke="#63b8ff" points="81.37,-416.84 91.96,-417.06 83.82,-410.28 81.37,-416.84"/>
</a>
</g>
</g>
<!-- Node15 -->
<g id="Node000015" class="node">
<title>Node15</title>
<g id="a_Node000015"><a xlink:href="main_8c.html#a81935c956660806200cde0f5f937e11d" target="_top" xlink:title=" ">
<polygon fill="white" stroke="#666666" points="153.88,-400 90.62,-400 90.62,-380 153.88,-380 153.88,-400"/>
<text xml:space="preserve" text-anchor="middle" x="122.25" y="-386.5" font-family="Helvetica,sans-Serif" font-size="10.00">hw_get_us</text>
</a>
</g>
</g>
<!-- Node1&#45;&gt;Node15 -->
<g id="edge14_Node000001_Node000015" class="edge">
<title>Node1&#45;&gt;Node15</title>
<g id="a_edge14_Node000001_Node000015"><a xlink:title=" ">
<path fill="none" stroke="#63b8ff" d="M37.22,-390C48.72,-390 64.23,-390 78.79,-390"/>
<polygon fill="#63b8ff" stroke="#63b8ff" points="78.66,-393.5 88.66,-390 78.66,-386.5 78.66,-393.5"/>
</a>
</g>
</g>
<!-- Node16 -->
<g id="Node000016" class="node">
<title>Node16</title>
<g id="a_Node000016"><a xlink:href="main_8c.html#a217dab4dd6921f2f3f87d4dbe33e3bd0" target="_top" xlink:title=" ">
<polygon fill="white" stroke="#666666" points="165.88,-362 78.62,-362 78.62,-342 165.88,-342 165.88,-362"/>
<text xml:space="preserve" text-anchor="middle" x="122.25" y="-348.5" font-family="Helvetica,sans-Serif" font-size="10.00">hw_trigger_write</text>
</a>
</g>
</g>
<!-- Node1&#45;&gt;Node16 -->
<g id="edge15_Node000001_Node000016" class="edge">
<title>Node1&#45;&gt;Node16</title>
<g id="a_edge15_Node000001_Node000016"><a xlink:title=" ">
<path fill="none" stroke="#63b8ff" d="M37.22,-383.38C49.81,-378.68 67.18,-372.19 82.87,-366.33"/>
<polygon fill="#63b8ff" stroke="#63b8ff" points="83.82,-369.72 91.96,-362.94 81.37,-363.16 83.82,-369.72"/>
</a>
</g>
</g>
<!-- Node17 -->
<g id="Node000017" class="node">
<title>Node17</title>
<g id="a_Node000017"><a xlink:href="main_8c.html#a39df72021aa8833b4e223b3350758fec" target="_top" xlink:title=" ">
<polygon fill="white" stroke="#666666" points="150.5,-324 94,-324 94,-304 150.5,-304 150.5,-324"/>
<text xml:space="preserve" text-anchor="middle" x="122.25" y="-310.5" font-family="Helvetica,sans-Serif" font-size="10.00">InitTMR0</text>
</a>
</g>
</g>
<!-- Node1&#45;&gt;Node17 -->
<g id="edge16_Node000001_Node000017" class="edge">
<title>Node1&#45;&gt;Node17</title>
<g id="a_edge16_Node000001_Node000017"><a xlink:title=" ">
<path fill="none" stroke="#63b8ff" d="M26.76,-379.85C36.17,-367.33 53.68,-346.11 73,-333 76.23,-330.81 79.74,-328.82 83.36,-327.02"/>
<polygon fill="#63b8ff" stroke="#63b8ff" points="84.54,-330.32 92.27,-323.07 81.71,-323.92 84.54,-330.32"/>
</a>
</g>
</g>
<!-- Node18 -->
<g id="Node000018" class="node">
<title>Node18</title>
<g id="a_Node000018"><a xlink:href="main_8c.html#ab1fcec07bcf17b4f6a902b7077d93740" target="_top" xlink:title=" ">
<polygon fill="white" stroke="#666666" points="150.5,-286 94,-286 94,-266 150.5,-266 150.5,-286"/>
<text xml:space="preserve" text-anchor="middle" x="122.25" y="-272.5" font-family="Helvetica,sans-Serif" font-size="10.00">InitTMR1</text>
</a>
</g>
</g>
<!-- Node1&#45;&gt;Node18 -->
<g id="edge17_Node000001_Node000018" class="edge">
<title>Node1&#45;&gt;Node18</title>
<g id="a_edge17_Node000001_Node000018"><a xlink:title=" ">
<path fill="none" stroke="#63b8ff" d="M22.72,-379.63C29.2,-360.37 45.59,-318.87 73,-295 76.14,-292.27 79.72,-289.9 83.47,-287.86"/>
<polygon fill="#63b8ff" stroke="#63b8ff" points="84.65,-291.17 92.28,-283.81 81.73,-284.81 84.65,-291.17"/>
</a>
</g>
</g>
<!-- Node19 -->
<g id="Node000019" class="node">
<title>Node19</title>
<g id="a_Node000019"><a xlink:href="main_8c.html#a511c6364f4cb08ab4ff1b2a53d626544" target="_top" xlink:title=" ">
<polygon fill="white" stroke="#666666" points="146,-210 98.5,-210 98.5,-190 146,-190 146,-210"/>
<text xml:space="preserve" text-anchor="middle" x="122.25" y="-196.5" font-family="Helvetica,sans-Serif" font-size="10.00">On2ms</text>
</a>
</g>
</g>
<!-- Node1&#45;&gt;Node19 -->
<g id="edge18_Node000001_Node000019" class="edge">
<title>Node1&#45;&gt;Node19</title>
<g id="a_edge18_Node000001_Node000019"><a xlink:title=" ">
<path fill="none" stroke="#63b8ff" d="M20.1,-379.72C22.28,-351.49 31.92,-271.74 73,-224 77.12,-219.21 82.42,-215.28 87.99,-212.09"/>
<polygon fill="#63b8ff" stroke="#63b8ff" points="89.33,-215.33 96.77,-207.78 86.25,-209.05 89.33,-215.33"/>
</a>
</g>
</g>
<!-- Node20 -->
<g id="Node000020" class="node">
<title>Node20</title>
<g id="a_Node000020"><a xlink:href="main_8c.html#a2bec24fbf70e6bfc572847a7d417a1e4" target="_top" xlink:title="Envia un evento al HMI Qt via protocolo UNER.">
<polygon fill="white" stroke="#666666" points="289.5,-172 225.5,-172 225.5,-152 289.5,-152 289.5,-172"/>
<text xml:space="preserve" text-anchor="middle" x="257.5" y="-158.5" font-family="Helvetica,sans-Serif" font-size="10.00">SendEvent</text>
</a>
</g>
</g>
<!-- Node1&#45;&gt;Node20 -->
<g id="edge35_Node000001_Node000020" class="edge">
<title>Node1&#45;&gt;Node20</title>
<g id="a_edge35_Node000001_Node000020"><a xlink:title=" ">
<path fill="none" stroke="#63b8ff" d="M20.8,-379.82C24.46,-355.32 37.02,-292.47 73,-257 106.41,-224.06 129.87,-240.65 171.5,-219 193.77,-207.42 217.35,-191.26 234.01,-179.11"/>
<polygon fill="#63b8ff" stroke="#63b8ff" points="235.79,-182.14 241.74,-173.38 231.62,-176.52 235.79,-182.14"/>
</a>
</g>
</g>
<!-- Node23 -->
<g id="Node000023" class="node">
<title>Node23</title>
<g id="a_Node000023"><a xlink:href="main_8c.html#ae20a66bc6fe10fe702f4b3f2922c52d8" target="_top" xlink:title="Callback del clasificador: solicita el disparo del actuador y notifica al HMI.">
<polygon fill="white" stroke="#666666" points="170,-134 74.5,-134 74.5,-114 170,-114 170,-134"/>
<text xml:space="preserve" text-anchor="middle" x="122.25" y="-120.5" font-family="Helvetica,sans-Serif" font-size="10.00">OnActuatorTrigger</text>
</a>
</g>
</g>
<!-- Node1&#45;&gt;Node23 -->
<g id="edge22_Node000001_Node000023" class="edge">
<title>Node1&#45;&gt;Node23</title>
<g id="a_edge22_Node000001_Node000023"><a xlink:title=" ">
<path fill="none" stroke="#63b8ff" d="M20.44,-379.77C24.47,-337.89 41.53,-180.03 73,-143 73.46,-142.46 73.93,-141.94 74.42,-141.44"/>
<polygon fill="#63b8ff" stroke="#63b8ff" points="76.49,-144.25 82.27,-135.37 72.21,-138.72 76.49,-144.25"/>
</a>
</g>
</g>
<!-- Node25 -->
<g id="Node000025" class="node">
<title>Node25</title>
<g id="a_Node000025"><a xlink:href="main_8c.html#a93e1ae40572a89c84a414b44cea20014" target="_top" xlink:title="Despacha comandos recibidos via protocolo UNER desde el HMI.">
<polygon fill="white" stroke="#666666" points="161.75,-96 82.75,-96 82.75,-76 161.75,-76 161.75,-96"/>
<text xml:space="preserve" text-anchor="middle" x="122.25" y="-82.5" font-family="Helvetica,sans-Serif" font-size="10.00">OnCommCmd</text>
</a>
</g>
</g>
<!-- Node1&#45;&gt;Node25 -->
<g id="edge25_Node000001_Node000025" class="edge">
<title>Node1&#45;&gt;Node25</title>
<g id="a_edge25_Node000001_Node000025"><a xlink:title=" ">
<path fill="none" stroke="#63b8ff" d="M20.12,-379.79C23.06,-334.07 37.08,-148.46 73,-105 73.45,-104.46 73.91,-103.93 74.4,-103.42"/>
<polygon fill="#63b8ff" stroke="#63b8ff" points="76.48,-106.23 82.18,-97.3 72.16,-100.73 76.48,-106.23"/>
</a>
</g>
</g>
<!-- Node28 -->
<g id="Node000028" class="node">
<title>Node28</title>
<g id="a_Node000028"><a xlink:href="main_8c.html#a86b74d914b1f6afb62d8bd1e4e31d166" target="_top" xlink:title="Registra una nueva caja y envia el evento al HMI.">
<polygon fill="white" stroke="#666666" points="155.38,-58 89.12,-58 89.12,-38 155.38,-38 155.38,-58"/>
<text xml:space="preserve" text-anchor="middle" x="122.25" y="-44.5" font-family="Helvetica,sans-Serif" font-size="10.00">OnNewBox</text>
</a>
</g>
</g>
<!-- Node1&#45;&gt;Node28 -->
<g id="edge30_Node000001_Node000028" class="edge">
<title>Node1&#45;&gt;Node28</title>
<g id="a_edge30_Node000001_Node000028"><a xlink:title=" ">
<path fill="none" stroke="#63b8ff" d="M19.87,-379.79C21.84,-330.44 32.62,-116.95 73,-67 74.83,-64.73 76.97,-62.74 79.31,-60.98"/>
<polygon fill="#63b8ff" stroke="#63b8ff" points="80.91,-64.1 87.81,-56.06 77.4,-58.04 80.91,-64.1"/>
</a>
</g>
</g>
<!-- Node30 -->
<g id="Node000030" class="node">
<title>Node30</title>
<g id="a_Node000030"><a xlink:href="main_8c.html#ac791cf6e6329387043b6bc9441a4e86b" target="_top" xlink:title="Lee los sensores IR S1 (PD2, pin 2), S2 (PD3, pin 3), S3 (PD4, pin 4) y envia eventos al HMI al detec...">
<polygon fill="white" stroke="#666666" points="171.5,-172 73,-172 73,-152 171.5,-152 171.5,-172"/>
<text xml:space="preserve" text-anchor="middle" x="122.25" y="-158.5" font-family="Helvetica,sans-Serif" font-size="10.00">ProcessIRSensors</text>
</a>
</g>
</g>
<!-- Node1&#45;&gt;Node30 -->
<g id="edge33_Node000001_Node000030" class="edge">
<title>Node1&#45;&gt;Node30</title>
<g id="a_edge33_Node000001_Node000030"><a xlink:title=" ">
<path fill="none" stroke="#63b8ff" d="M19.06,-379.82C18.21,-346.77 19.96,-241.09 73,-181 73.58,-180.34 74.19,-179.71 74.82,-179.09"/>
<polygon fill="#63b8ff" stroke="#63b8ff" points="76.87,-181.93 82.85,-173.18 72.72,-176.29 76.87,-181.93"/>
</a>
</g>
</g>
<!-- Node31 -->
<g id="Node000031" class="node">
<title>Node31</title>
<g id="a_Node000031"><a xlink:href="_servo_8c.html#a4363bf9b248b133828855ea668bdb3a4" target="_top" xlink:title="Inicializa el modulo de servos.">
<polygon fill="white" stroke="#666666" points="152.38,-20 92.12,-20 92.12,0 152.38,0 152.38,-20"/>
<text xml:space="preserve" text-anchor="middle" x="122.25" y="-6.5" font-family="Helvetica,sans-Serif" font-size="10.00">Servo_Init</text>
</a>
</g>
</g>
<!-- Node1&#45;&gt;Node31 -->
<g id="edge36_Node000001_Node000031" class="edge">
<title>Node1&#45;&gt;Node31</title>
<g id="a_edge36_Node000001_Node000031"><a xlink:title=" ">
<path fill="none" stroke="#63b8ff" d="M19.67,-379.67C20.77,-326.66 28.17,-85.43 73,-29 75.45,-25.91 78.48,-23.32 81.82,-21.15"/>
<polygon fill="#63b8ff" stroke="#63b8ff" points="83.12,-24.42 90.45,-16.77 79.95,-18.18 83.12,-24.42"/>
</a>
</g>
</g>
<!-- Node6 -->
<g id="Node000006" class="node">
<title>Node6</title>
<g id="a_Node000006"><a xlink:href="_classifier_8c.html#a2277e0160f98d9d708cc55885df459ce" target="_top" xlink:title="Elimina la caja en la posicion idx desplazando las siguientes.">
<polygon fill="white" stroke="#666666" points="286.5,-666 228.5,-666 228.5,-646 286.5,-646 286.5,-666"/>
<text xml:space="preserve" text-anchor="middle" x="257.5" y="-652.5" font-family="Helvetica,sans-Serif" font-size="10.00">removeAt</text>
</a>
</g>
</g>
<!-- Node5&#45;&gt;Node6 -->
<g id="edge5_Node000005_Node000006" class="edge">
<title>Node5&#45;&gt;Node6</title>
<g id="a_edge5_Node000005_Node000006"><a xlink:title=" ">
<path fill="none" stroke="#63b8ff" d="M171.73,-656C186.5,-656 202.55,-656 216.68,-656"/>
<polygon fill="#63b8ff" stroke="#63b8ff" points="216.5,-659.5 226.5,-656 216.5,-652.5 216.5,-659.5"/>
</a>
</g>
</g>
<!-- Node8 -->
<g id="Node000008" class="node">
<title>Node8</title>
<g id="a_Node000008"><a xlink:href="_comm_8c.html#ab7be665dc1d0fbffa21b750006b48b74" target="_top" xlink:title="Configura el periferico UART0 del ATmega.">
<polygon fill="white" stroke="#666666" points="303,-628 212,-628 212,-608 303,-608 303,-628"/>
<text xml:space="preserve" text-anchor="middle" x="257.5" y="-614.5" font-family="Helvetica,sans-Serif" font-size="10.00">Comm_InitUART</text>
</a>
</g>
</g>
<!-- Node7&#45;&gt;Node8 -->
<g id="edge7_Node000007_Node000008" class="edge">
<title>Node7&#45;&gt;Node8</title>
<g id="a_edge7_Node000007_Node000008"><a xlink:title=" ">
<path fill="none" stroke="#63b8ff" d="M154.49,-618C168.17,-618 184.65,-618 200.34,-618"/>
<polygon fill="#63b8ff" stroke="#63b8ff" points="200.06,-621.5 210.06,-618 200.06,-614.5 200.06,-621.5"/>
</a>
</g>
</g>
<!-- Node13 -->
<g id="Node000013" class="node">
<title>Node13</title>
<g id="a_Node000013"><a xlink:href="_servo_8c.html#adf094d870924f4e81480def1341ba01b" target="_top" xlink:title="Cambia la posicion de un servomotor.">
<polygon fill="white" stroke="#666666" points="306,-476 209,-476 209,-456 306,-456 306,-476"/>
<text xml:space="preserve" text-anchor="middle" x="257.5" y="-462.5" font-family="Helvetica,sans-Serif" font-size="10.00">Servo_SetPosition</text>
</a>
</g>
</g>
<!-- Node12&#45;&gt;Node13 -->
<g id="edge12_Node000012_Node000013" class="edge">
<title>Node12&#45;&gt;Node13</title>
<g id="a_edge12_Node000012_Node000013"><a xlink:title=" ">
<path fill="none" stroke="#63b8ff" d="M157.22,-466C169.39,-466 183.49,-466 197.17,-466"/>
<polygon fill="#63b8ff" stroke="#63b8ff" points="197,-469.5 207,-466 197,-462.5 197,-469.5"/>
</a>
</g>
</g>
<!-- Node19&#45;&gt;Node20 -->
<g id="edge19_Node000019_Node000020" class="edge">
<title>Node19&#45;&gt;Node20</title>
<g id="a_edge19_Node000019_Node000020"><a xlink:title=" ">
<path fill="none" stroke="#63b8ff" d="M146.46,-193.38C165.09,-188.07 191.73,-180.47 214.14,-174.08"/>
<polygon fill="#63b8ff" stroke="#63b8ff" points="214.96,-177.49 223.61,-171.38 213.04,-170.76 214.96,-177.49"/>
</a>
</g>
</g>
<!-- Node21 -->
<g id="Node000021" class="node">
<title>Node21</title>
<g id="a_Node000021"><a xlink:href="_comm_8c.html#ae71d12e317420e00d9c2ce5f67ecf640" target="_top" xlink:title="Encola una trama UNER en el buffer de transmision.">
<polygon fill="white" stroke="#666666" points="416.5,-172 343.5,-172 343.5,-152 416.5,-152 416.5,-172"/>
<text xml:space="preserve" text-anchor="middle" x="380" y="-158.5" font-family="Helvetica,sans-Serif" font-size="10.00">Comm_Send</text>
</a>
</g>
</g>
<!-- Node20&#45;&gt;Node21 -->
<g id="edge20_Node000020_Node000021" class="edge">
<title>Node20&#45;&gt;Node21</title>
<g id="a_edge20_Node000020_Node000021"><a xlink:title=" ">
<path fill="none" stroke="#63b8ff" d="M289.85,-162C302.59,-162 317.6,-162 331.64,-162"/>
<polygon fill="#63b8ff" stroke="#63b8ff" points="331.61,-165.5 341.61,-162 331.61,-158.5 331.61,-165.5"/>
</a>
</g>
</g>
<!-- Node22 -->
<g id="Node000022" class="node">
<title>Node22</title>
<g id="a_Node000022"><a xlink:href="_comm_8c.html#ae2ccc0b50360e3c4a2ee0c5bd8c5960c" target="_top" xlink:title="Escribe un byte en el buffer circular de transmision.">
<polygon fill="white" stroke="#666666" points="513.5,-172 452.5,-172 452.5,-152 513.5,-152 513.5,-172"/>
<text xml:space="preserve" text-anchor="middle" x="483" y="-158.5" font-family="Helvetica,sans-Serif" font-size="10.00">putTxByte</text>
</a>
</g>
</g>
<!-- Node21&#45;&gt;Node22 -->
<g id="edge21_Node000021_Node000022" class="edge">
<title>Node21&#45;&gt;Node22</title>
<g id="a_edge21_Node000021_Node000022"><a xlink:title=" ">
<path fill="none" stroke="#63b8ff" d="M416.89,-162C424.66,-162 432.94,-162 440.9,-162"/>
<polygon fill="#63b8ff" stroke="#63b8ff" points="440.71,-165.5 450.71,-162 440.71,-158.5 440.71,-165.5"/>
</a>
</g>
</g>
<!-- Node23&#45;&gt;Node20 -->
<g id="edge24_Node000023_Node000020" class="edge">
<title>Node23&#45;&gt;Node20</title>
<g id="a_edge24_Node000023_Node000020"><a xlink:title=" ">
<path fill="none" stroke="#63b8ff" d="M160.01,-134.48C176.82,-139.28 196.83,-144.98 214.25,-149.95"/>
<polygon fill="#63b8ff" stroke="#63b8ff" points="213.24,-153.3 223.82,-152.68 215.16,-146.57 213.24,-153.3"/>
</a>
</g>
</g>
<!-- Node24 -->
<g id="Node000024" class="node">
<title>Node24</title>
<g id="a_Node000024"><a xlink:href="_actuator_8c.html#aa4fc0a416ac8c36eed04620062ff1b6f" target="_top" xlink:title="Solicita el disparo del actuador.">
<polygon fill="white" stroke="#666666" points="301.5,-134 213.5,-134 213.5,-114 301.5,-114 301.5,-134"/>
<text xml:space="preserve" text-anchor="middle" x="257.5" y="-120.5" font-family="Helvetica,sans-Serif" font-size="10.00">Actuator_Trigger</text>
</a>
</g>
</g>
<!-- Node23&#45;&gt;Node24 -->
<g id="edge23_Node000023_Node000024" class="edge">
<title>Node23&#45;&gt;Node24</title>
<g id="a_edge23_Node000023_Node000024"><a xlink:title=" ">
<path fill="none" stroke="#63b8ff" d="M170.23,-124C180.46,-124 191.38,-124 201.88,-124"/>
<polygon fill="#63b8ff" stroke="#63b8ff" points="201.55,-127.5 211.55,-124 201.55,-120.5 201.55,-127.5"/>
</a>
</g>
</g>
<!-- Node25&#45;&gt;Node20 -->
<g id="edge28_Node000025_Node000020" class="edge">
<title>Node25&#45;&gt;Node20</title>
<g id="a_edge28_Node000025_Node000020"><a xlink:title=" ">
<path fill="none" stroke="#63b8ff" d="M155.65,-96.48C161.15,-98.89 166.65,-101.73 171.5,-105 190.78,-118.02 188.18,-130.03 207.5,-143 209.85,-144.58 212.36,-146.06 214.94,-147.43"/>
<polygon fill="#63b8ff" stroke="#63b8ff" points="213.24,-150.5 223.77,-151.59 216.22,-144.16 213.24,-150.5"/>
</a>
</g>
</g>
<!-- Node25&#45;&gt;Node24 -->
<g id="edge26_Node000025_Node000024" class="edge">
<title>Node25&#45;&gt;Node24</title>
<g id="a_edge26_Node000025_Node000024"><a xlink:title=" ">
<path fill="none" stroke="#63b8ff" d="M160.01,-96.48C175.16,-100.8 192.9,-105.86 209.01,-110.46"/>
<polygon fill="#63b8ff" stroke="#63b8ff" points="207.82,-113.76 218.4,-113.13 209.74,-107.03 207.82,-113.76"/>
</a>
</g>
</g>
<!-- Node26 -->
<g id="Node000026" class="node">
<title>Node26</title>
<g id="a_Node000026"><a xlink:href="_classifier_8c.html#a9c6e1aa223069277aeafe4c0b5c91f2a" target="_top" xlink:title="Vacia la lista de cajas en transito sin modificar la configuracion.">
<polygon fill="white" stroke="#666666" points="301.88,-96 213.12,-96 213.12,-76 301.88,-76 301.88,-96"/>
<text xml:space="preserve" text-anchor="middle" x="257.5" y="-82.5" font-family="Helvetica,sans-Serif" font-size="10.00">Classifier_Reset</text>
</a>
</g>
</g>
<!-- Node25&#45;&gt;Node26 -->
<g id="edge27_Node000025_Node000026" class="edge">
<title>Node25&#45;&gt;Node26</title>
<g id="a_edge27_Node000025_Node000026"><a xlink:title=" ">
<path fill="none" stroke="#63b8ff" d="M162.15,-86C174.39,-86 188.15,-86 201.29,-86"/>
<polygon fill="#63b8ff" stroke="#63b8ff" points="201.12,-89.5 211.12,-86 201.12,-82.5 201.12,-89.5"/>
</a>
</g>
</g>
<!-- Node27 -->
<g id="Node000027" class="node">
<title>Node27</title>
<g id="a_Node000027"><a xlink:href="_servo_8c.html#a0a5bd5a9c1516f5420e3e2435fee3f17" target="_top" xlink:title="Ajusta el ancho de pulso de extension de un servo.">
<polygon fill="white" stroke="#666666" points="300.75,-58 214.25,-58 214.25,-38 300.75,-38 300.75,-58"/>
<text xml:space="preserve" text-anchor="middle" x="257.5" y="-44.5" font-family="Helvetica,sans-Serif" font-size="10.00">Servo_SetPulse</text>
</a>
</g>
</g>
<!-- Node25&#45;&gt;Node27 -->
<g id="edge29_Node000025_Node000027" class="edge">
<title>Node25&#45;&gt;Node27</title>
<g id="a_edge29_Node000025_Node000027"><a xlink:title=" ">
<path fill="none" stroke="#63b8ff" d="M160.01,-75.52C175.16,-71.2 192.9,-66.14 209.01,-61.54"/>
<polygon fill="#63b8ff" stroke="#63b8ff" points="209.74,-64.97 218.4,-58.87 207.82,-58.24 209.74,-64.97"/>
</a>
</g>
</g>
<!-- Node28&#45;&gt;Node20 -->
<g id="edge32_Node000028_Node000020" class="edge">
<title>Node28&#45;&gt;Node20</title>
<g id="a_edge32_Node000028_Node000020"><a xlink:title=" ">
<path fill="none" stroke="#63b8ff" d="M155.86,-56.93C161.53,-59.52 167.03,-62.82 171.5,-67 198.8,-92.53 180.13,-117.55 207.5,-143 209.77,-145.11 212.3,-147 214.98,-148.68"/>
<polygon fill="#63b8ff" stroke="#63b8ff" points="213.33,-151.76 223.82,-153.23 216.53,-145.54 213.33,-151.76"/>
</a>
</g>
</g>
<!-- Node29 -->
<g id="Node000029" class="node">
<title>Node29</title>
<g id="a_Node000029"><a xlink:href="_classifier_8c.html#a6bc38faab18ac29b750ae7607058a19c" target="_top" xlink:title="Registra una nueva caja medida por el HC&#45;SR04.">
<polygon fill="white" stroke="#666666" points="307.5,-20 207.5,-20 207.5,0 307.5,0 307.5,-20"/>
<text xml:space="preserve" text-anchor="middle" x="257.5" y="-6.5" font-family="Helvetica,sans-Serif" font-size="10.00">Classifier_NewBox</text>
</a>
</g>
</g>
<!-- Node28&#45;&gt;Node29 -->
<g id="edge31_Node000028_Node000029" class="edge">
<title>Node28&#45;&gt;Node29</title>
<g id="a_edge31_Node000028_Node000029"><a xlink:title=" ">
<path fill="none" stroke="#63b8ff" d="M155.85,-38.7C171.85,-34.14 191.43,-28.56 209.06,-23.53"/>
<polygon fill="#63b8ff" stroke="#63b8ff" points="209.9,-26.93 218.56,-20.82 207.98,-20.2 209.9,-26.93"/>
</a>
</g>
</g>
<!-- Node30&#45;&gt;Node20 -->
<g id="edge34_Node000030_Node000020" class="edge">
<title>Node30&#45;&gt;Node20</title>
<g id="a_edge34_Node000030_Node000020"><a xlink:title=" ">
<path fill="none" stroke="#63b8ff" d="M171.73,-162C185.55,-162 200.49,-162 213.92,-162"/>
<polygon fill="#63b8ff" stroke="#63b8ff" points="213.76,-165.5 223.76,-162 213.76,-158.5 213.76,-165.5"/>
</a>
</g>
</g>
</g>
</svg>
