<?xml version="1.0" encoding="UTF-8" standalone="no"?>
<!DOCTYPE svg PUBLIC "-//W3C//DTD SVG 1.1//EN"
 "http://www.w3.org/Graphics/SVG/1.1/DTD/svg11.dtd">
<!-- Generated by graphviz version 14.1.5 (20260411.2331)
 -->
<!-- Title: OnCommCmd Pages: 1 -->
<svg width="418pt" height="142pt"
 viewBox="0.00 0.00 418.00 142.00" xmlns="http://www.w3.org/2000/svg" xmlns:xlink="http://www.w3.org/1999/xlink">

<svg id="main" version="1.1" xmlns="http://www.w3.org/2000/svg" xmlns:xlink="http://www.w3.org/1999/xlink" xml:space="preserve">

<style type="text/css"><![CDATA[
.node, .edge {opacity: 0.7;}
.node.selected, .edge.selected {opacity: 1;}
.edge:hover path { stroke: red; }
.edge:hover polygon { stroke: red; fill: red; }
]]></style>
<script type="application/ecmascript" xlink:href="svg.min.js"/>
<svg id="graph" class="graph">
<g id="graph0" class="graph" transform="scale(1 1) rotate(0) translate(4 138)">
<title>OnCommCmd</title>
<!-- Node1 -->
<g id="Node000001" class="node">
<title>Node1</title>
<g id="a_Node000001"><a xlink:title="Despacha comandos recibidos via protocolo UNER desde el HMI.">
<polygon fill="#999999" stroke="#666666" points="79,-77 0,-77 0,-57 79,-57 79,-77"/>
<text xml:space="preserve" text-anchor="middle" x="39.5" y="-63.5" font-family="Helvetica,sans-Serif" font-size="10.00">OnCommCmd</text>
</a>
</g>
</g>
<!-- Node2 -->
<g id="Node000002" class="node">
<title>Node2</title>
<g id="a_Node000002"><a xlink:href="_actuator_8c.html#aa4fc0a416ac8c36eed04620062ff1b6f" target="_top" xlink:title="Solicita el disparo del actuador.">
<polygon fill="white" stroke="#666666" points="203.38,-134 115.38,-134 115.38,-114 203.38,-114 203.38,-134"/>
<text xml:space="preserve" text-anchor="middle" x="159.38" y="-120.5" font-family="Helvetica,sans-Serif" font-size="10.00">Actuator_Trigger</text>
</a>
</g>
</g>
<!-- Node1&#45;&gt;Node2 -->
<g id="edge1_Node000001_Node000002" class="edge">
<title>Node1&#45;&gt;Node2</title>
<g id="a_edge1_Node000001_Node000002"><a xlink:title=" ">
<path fill="none" stroke="#63b8ff" d="M60.26,-77.48C75.19,-85.3 96.23,-96.11 115,-105 117.76,-106.31 120.63,-107.64 123.53,-108.95"/>
<polygon fill="#63b8ff" stroke="#63b8ff" points="122,-112.1 132.56,-112.98 124.86,-105.71 122,-112.1"/>
</a>
</g>
</g>
<!-- Node3 -->
<g id="Node000003" class="node">
<title>Node3</title>
<g id="a_Node000003"><a xlink:href="_classifier_8c.html#a9c6e1aa223069277aeafe4c0b5c91f2a" target="_top" xlink:title="Vacia la lista de cajas en transito sin modificar la configuracion.">
<polygon fill="white" stroke="#666666" points="203.75,-96 115,-96 115,-76 203.75,-76 203.75,-96"/>
<text xml:space="preserve" text-anchor="middle" x="159.38" y="-82.5" font-family="Helvetica,sans-Serif" font-size="10.00">Classifier_Reset</text>
</a>
</g>
</g>
<!-- Node1&#45;&gt;Node3 -->
<g id="edge2_Node000001_Node000003" class="edge">
<title>Node1&#45;&gt;Node3</title>
<g id="a_edge2_Node000001_Node000003"><a xlink:title=" ">
<path fill="none" stroke="#63b8ff" d="M79.42,-73.27C87.08,-74.51 95.25,-75.82 103.32,-77.13"/>
<polygon fill="#63b8ff" stroke="#63b8ff" points="102.68,-80.57 113.11,-78.7 103.79,-73.66 102.68,-80.57"/>
</a>
</g>
</g>
<!-- Node4 -->
<g id="Node000004" class="node">
<title>Node4</title>
<g id="a_Node000004"><a xlink:href="main_8c.html#a2bec24fbf70e6bfc572847a7d417a1e4" target="_top" xlink:title="Envia un evento al HMI Qt via protocolo UNER.">
<polygon fill="white" stroke="#666666" points="191.38,-58 127.38,-58 127.38,-38 191.38,-38 191.38,-58"/>
<text xml:space="preserve" text-anchor="middle" x="159.38" y="-44.5" font-family="Helvetica,sans-Serif" font-size="10.00">SendEvent</text>
</a>
</g>
</g>
<!-- Node1&#45;&gt;Node4 -->
<g id="edge3_Node000001_Node000004" class="edge">
<title>Node1&#45;&gt;Node4</title>
<g id="a_edge3_Node000001_Node000004"><a xlink:title=" ">
<path fill="none" stroke="#63b8ff" d="M79.42,-60.73C91.11,-58.84 103.99,-56.77 115.9,-54.85"/>
<polygon fill="#63b8ff" stroke="#63b8ff" points="116.13,-58.35 125.45,-53.31 115.02,-51.44 116.13,-58.35"/>
</a>
</g>
</g>
<!-- Node7 -->
<g id="Node000007" class="node">
<title>Node7</title>
<g id="a_Node000007"><a xlink:href="_servo_8c.html#a0a5bd5a9c1516f5420e3e2435fee3f17" target="_top" xlink:title="Ajusta el ancho de pulso de extension de un servo.">
<polygon fill="white" stroke="#666666" points="202.62,-20 116.12,-20 116.12,0 202.62,0 202.62,-20"/>
<text xml:space="preserve" text-anchor="middle" x="159.38" y="-6.5" font-family="Helvetica,sans-Serif" font-size="10.00">Servo_SetPulse</text>
</a>
</g>
</g>
<!-- Node1&#45;&gt;Node7 -->
<g id="edge6_Node000001_Node000007" class="edge">
<title>Node1&#45;&gt;Node7</title>
<g id="a_edge6_Node000001_Node000007"><a xlink:title=" ">
<path fill="none" stroke="#63b8ff" d="M60.26,-56.52C75.19,-48.7 96.23,-37.89 115,-29 117.76,-27.69 120.63,-26.36 123.53,-25.05"/>
<polygon fill="#63b8ff" stroke="#63b8ff" points="124.86,-28.29 132.56,-21.02 122,-21.9 124.86,-28.29"/>
</a>
</g>
</g>
<!-- Node5 -->
<g id="Node000005" class="node">
<title>Node5</title>
<g id="a_Node000005"><a xlink:href="_comm_8c.html#ae71d12e317420e00d9c2ce5f67ecf640" target="_top" xlink:title="Encola una trama UNER en el buffer de transmision.">
<polygon fill="white" stroke="#666666" points="312.75,-58 239.75,-58 239.75,-38 312.75,-38 312.75,-58"/>
<text xml:space="preserve" text-anchor="middle" x="276.25" y="-44.5" font-family="Helvetica,sans-Serif" font-size="10.00">Comm_Send</text>
</a>
</g>
</g>
<!-- Node4&#45;&gt;Node5 -->
<g id="edge4_Node000004_Node000005" class="edge">
<title>Node4&#45;&gt;Node5</title>
<g id="a_edge4_Node000004_Node000005"><a xlink:title=" ">
<path fill="none" stroke="#63b8ff" d="M191.77,-48C202.94,-48 215.79,-48 228,-48"/>
<polygon fill="#63b8ff" stroke="#63b8ff" points="227.92,-51.5 237.92,-48 227.92,-44.5 227.92,-51.5"/>
</a>
</g>
</g>
<!-- Node6 -->
<g id="Node000006" class="node">
<title>Node6</title>
<g id="a_Node000006"><a xlink:href="_comm_8c.html#ae2ccc0b50360e3c4a2ee0c5bd8c5960c" target="_top" xlink:title="Escribe un byte en el buffer circular de transmision.">
<polygon fill="white" stroke="#666666" points="409.75,-58 348.75,-58 348.75,-38 409.75,-38 409.75,-58"/>
<text xml:space="preserve" text-anchor="middle" x="379.25" y="-44.5" font-family="Helvetica,sans-Serif" font-size="10.00">putTxByte</text>
</a>
</g>
</g>
<!-- Node5&#45;&gt;Node6 -->
<g id="edge5_Node000005_Node000006" class="edge">
<title>Node5&#45;&gt;Node6</title>
<g id="a_edge5_Node000005_Node000006"><a xlink:title=" ">
<path fill="none" stroke="#63b8ff" d="M313.14,-48C320.91,-48 329.19,-48 337.15,-48"/>
<polygon fill="#63b8ff" stroke="#63b8ff" points="336.96,-51.5 346.96,-48 336.96,-44.5 336.96,-51.5"/>
</a>
</g>
</g>
</g>
</svg>
</svg>

<style type='text/css'>
<![CDATA[
[data-mouse-over-selected='false'] { opacity: 0.7; }
[data-mouse-over-selected='true']  { opacity: 1.0; }
]]>
</style>
<script type="application/ecmascript"><![CDATA[
document.addEventListener('DOMContentLoaded', (event) => {
  highlightEdges();
  highlightAdjacentNodes();
});
]]></script>
</svg>
